<?xml version="1.0" encoding="UTF-8"?>
<!DOCTYPE svg PUBLIC "-//W3C//DTD SVG 1.1//EN" "http://www.w3.org/Graphics/SVG/1.1/DTD/svg11.dtd">
<svg xmlns="http://www.w3.org/2000/svg" style="background: transparent; background-color: transparent; color-scheme: light dark;" xmlns:xlink="http://www.w3.org/1999/xlink" version="1.1" width="1832px" height="1233px" viewBox="0 0 1832 1233" id="ge-svg-MYFbk4UBTdqofYs2sdQS"><style type="text/css">@supports (color: light-dark(#000, #fff)) { #ge-svg-MYFbk4UBTdqofYs2sdQS { --ge-adaptive-bg: light-dark(#ffffff, var(--ge-dark-color, #121212)); } }</style><defs><symbol id="mx-image-10nee2x" viewBox="0 0 180 58"><image width="180" height="58" xlink:href=""/></symbol><symbol id="mx-image-in3q84" viewBox="0 0 160 58"><image width="160" height="58" xlink:href=""/></symbol><symbol id="mx-image-1fw2ozw" viewBox="0 0 208 58"><image width="208" height="58" xlink:href=""/></symbol><symbol id="mx-image-lekec8" viewBox="0 0 2672 63"><image width="2672" height="63" xlink:href=""/></symbol><symbol id="mx-image-1a1c36j" viewBox="0 0 232 63"><image width="232" height="63" xlink:href=""/></symbol><symbol id="mx-image-7jy938" viewBox="0 0 2672 63"><image width="2672" height="63" xlink:href=""/></symbol><symbol id="mx-image-17igcsy" viewBox="0 0 2672 63"><image width="2672" height="63" xlink:href=""/></symbol></defs><g><g data-cell-id="0"><g data-cell-id="1"><g data-cell-id="aws-cloud"><g transform="translate(0.5,0.5)"><path d="M 10 10 L 1810 10 L 1810 1110 L 10 1110 Z" fill="none" stroke="#232f3e" stroke-miterlimit="10" pointer-events="none" style="stroke: light-dark(rgb(35, 47, 62), rgb(189, 199, 212));"/><path d="M 20.73 16.89 C 18.19 16.86 16.05 19.34 16.28 21.84 C 14.63 22.3 13.58 24.09 13.93 25.76 C 14.17 27.45 15.84 28.8 17.55 28.58 C 21.3 28.56 25.05 28.61 28.79 28.55 C 30.71 28.38 32.05 26.29 31.58 24.45 C 31.34 23.13 30.21 21.98 28.87 21.81 C 28.86 20.3 27.26 18.82 25.79 19.6 C 24.97 20.39 24.82 18.44 24.02 18.13 C 23.14 17.28 21.95 16.82 20.73 16.89 Z M 20.75 17.63 C 22.68 17.51 24.32 19.05 24.91 20.79 C 25.31 21.19 25.67 20.52 25.97 20.34 C 27.25 19.57 28.21 21.17 28.23 22.29 C 28.58 22.77 29.39 22.38 29.77 22.91 C 31.21 23.93 31.3 26.3 29.88 27.37 C 28.9 28.09 27.63 27.75 26.5 27.83 C 23.28 27.82 20.06 27.84 16.84 27.82 C 15.2 27.58 14.19 25.69 14.79 24.17 C 15.07 23.16 16.05 22.67 16.94 22.36 C 17.19 21.62 16.85 20.71 17.33 19.99 C 17.92 18.65 19.25 17.61 20.75 17.63 Z M 10 35 C 10 26.67 10 18.33 10 10 C 18.33 10 26.67 10 35 10 C 35 18.33 35 26.67 35 35 C 26.67 35 18.33 35 10 35 Z" fill="#232f3e" stroke="none" pointer-events="all" style="fill: light-dark(rgb(35, 47, 62), rgb(189, 199, 212));"/></g><g><g><switch><foreignObject style="overflow: visible; text-align: left;" pointer-events="none" width="100%" height="100%" requiredFeatures="http://www.w3.org/TR/SVG11/feature#Extensibility"><div xmlns="http://www.w3.org/1999/xhtml" style="display: flex; align-items: unsafe flex-start; justify-content: unsafe flex-start; width: 1768px; height: 1px; padding-top: 17px; margin-left: 42px;"><div style="box-sizing: border-box; font-size: 0; text-align: left; color: #232F3E; "><div style="display: inline-block; font-size: 12px; font-family: Helvetica; color: light-dark(#232F3E, #bdc7d4); line-height: 1.2; pointer-events: all; font-weight: bold; white-space: normal; word-wrap: normal; ">AWS Cloud</div></div></div></foreignObject><image x="42" y="17.5" width="1768" height="17" xlink:href=""/></switch></g></g><g data-cell-id="region"><g transform="translate(0.5,0.5)"><path d="M 50 50 L 1770 50 L 1770 1070 L 50 1070 Z" fill="none" stroke="#00a4a6" stroke-miterlimit="10" stroke-dasharray="3 3" pointer-events="none" style="stroke: light-dark(rgb(0, 164, 166), rgb(15, 156, 158));"/><path d="M 58.06 53.47 C 57.47 53.47 57 53.95 57 54.53 C 57 54.99 57.3 55.39 57.71 55.53 L 57.71 70.82 L 55.95 70.82 L 55.95 71.57 L 60.16 71.57 L 60.16 70.82 L 58.46 70.82 L 58.46 62.75 L 69.84 62.75 L 67.19 59.59 L 69.83 56.36 L 58.46 56.36 L 58.46 55.51 C 58.85 55.35 59.12 54.97 59.12 54.53 C 59.12 53.95 58.64 53.47 58.06 53.47 Z M 58.06 54.22 C 58.23 54.22 58.37 54.35 58.37 54.53 C 58.37 54.71 58.23 54.84 58.06 54.84 C 57.88 54.84 57.75 54.71 57.75 54.53 C 57.75 54.35 57.88 54.22 58.06 54.22 Z M 58.46 57.11 L 68.25 57.11 L 66.22 59.6 L 68.23 62 L 58.46 62 Z M 50 75 L 50 50 L 75 50 L 75 75 Z" fill="#00a4a6" stroke="none" pointer-events="all" style="fill: light-dark(rgb(0, 164, 166), rgb(15, 156, 158));"/></g><g><g><switch><foreignObject style="overflow: visible; text-align: left;" pointer-events="none" width="100%" height="100%" requiredFeatures="http://www.w3.org/TR/SVG11/feature#Extensibility"><div xmlns="http://www.w3.org/1999/xhtml" style="display: flex; align-items: unsafe flex-start; justify-content: unsafe flex-start; width: 1688px; height: 1px; padding-top: 57px; margin-left: 82px;"><div style="box-sizing: border-box; font-size: 0; text-align: left; color: #00A4A6; "><div style="display: inline-block; font-size: 12px; font-family: Helvetica; color: light-dark(#00A4A6, #0f9c9e); line-height: 1.2; pointer-events: all; font-weight: bold; white-space: normal; word-wrap: normal; ">us-east-1</div></div></div></foreignObject><image x="82" y="57.5" width="1688" height="17" xlink:href=""/></switch></g></g><g data-cell-id="vpc"><g transform="translate(0.5,0.5)"><path d="M 90 110 L 1730 110 L 1730 1030 L 90 1030 Z" fill="none" stroke="#8c4fff" stroke-miterlimit="10" pointer-events="none" style="stroke: light-dark(rgb(140, 79, 255), rgb(177, 125, 255));"/><path d="M 90 110 L 90 135 L 115 135 L 115 110 Z M 100.99 114.38 C 102.29 114.36 103.51 114.77 104.32 115.55 C 104.78 116 105.14 116.51 105.42 117.1 C 105.8 116.82 106.29 116.69 106.89 116.72 C 108 116.77 108.85 117.79 109.03 119.22 C 109.97 119.3 110.58 119.77 110.91 120.66 L 110.33 120.88 C 110.06 120.16 109.57 119.83 108.74 119.83 C 108.58 119.83 108.44 119.7 108.43 119.54 C 108.35 118.08 107.55 117.38 106.85 117.34 C 106.26 117.31 105.83 117.48 105.55 117.83 C 105.48 117.93 105.38 117.97 105.26 117.96 C 105.15 117.94 105.05 117.86 105.01 117.75 C 104.76 117.06 104.39 116.49 103.88 115.99 C 102.76 114.91 100.7 114.68 98.86 115.44 C 97.57 115.96 96.74 117.32 96.74 118.88 C 96.74 119.06 96.76 119.32 96.78 119.48 C 96.8 119.64 96.7 119.79 96.55 119.82 C 95.11 120.18 94.37 121.05 94.37 122.4 C 94.37 122.46 94.37 122.53 94.38 122.59 C 94.47 124.15 95.44 125.15 96.87 125.15 L 101.87 125.15 L 101.87 125.77 L 96.87 125.77 C 95.11 125.77 93.86 124.51 93.76 122.64 C 93.75 122.57 93.75 122.48 93.75 122.4 C 93.75 120.83 94.57 119.76 96.14 119.29 C 96.12 119.15 96.12 119 96.12 118.88 C 96.12 117.06 97.1 115.48 98.63 114.86 C 99.4 114.54 100.21 114.38 100.99 114.38 Z M 107.21 119.83 C 107.25 119.83 107.29 119.84 107.33 119.86 L 111.05 121.5 C 111.17 121.55 111.24 121.66 111.24 121.79 L 111.24 126.4 C 111.24 126.47 111.26 128.43 109.99 129.72 C 109.28 130.43 108.33 130.8 107.15 130.8 C 105.97 130.8 105.02 130.43 104.33 129.72 C 103.08 128.43 103.12 126.47 103.12 126.39 L 103.12 121.73 C 103.12 121.61 103.19 121.49 103.31 121.45 L 107.08 119.86 C 107.12 119.84 107.16 119.83 107.21 119.83 Z M 107.2 120.49 L 103.74 121.94 L 103.74 126.4 C 103.74 126.42 103.71 128.19 104.78 129.29 C 105.35 129.87 106.15 130.17 107.15 130.17 C 108.15 130.17 108.96 129.87 109.54 129.28 C 110.62 128.18 110.61 126.42 110.61 126.4 L 110.61 121.99 Z M 107.2 121.57 C 107.25 121.57 107.29 121.58 107.33 121.59 L 109.79 122.65 C 109.91 122.7 109.98 122.81 109.98 122.94 L 109.98 127.02 C 109.87 127.93 109.13 129.56 107.15 129.56 C 105.23 129.56 104.49 127.93 104.37 127.06 L 104.37 122.94 C 104.37 122.81 104.45 122.7 104.56 122.65 L 107.08 121.59 C 107.12 121.58 107.16 121.57 107.2 121.57 Z M 106.89 122.35 L 104.99 123.15 L 104.99 127.02 C 105 127.05 105.27 128.75 106.89 128.92 Z M 107.52 122.35 L 107.52 128.91 C 109.11 128.69 109.35 127.05 109.36 126.98 L 109.36 123.14 Z" fill="#8c4fff" stroke="none" pointer-events="all" style="fill: light-dark(rgb(140, 79, 255), rgb(177, 125, 255));"/></g><g><g><switch><foreignObject style="overflow: visible; text-align: left;" pointer-events="none" width="100%" height="100%" requiredFeatures="http://www.w3.org/TR/SVG11/feature#Extensibility"><div xmlns="http://www.w3.org/1999/xhtml" style="display: flex; align-items: unsafe flex-start; justify-content: unsafe flex-start; width: 1608px; height: 1px; padding-top: 117px; margin-left: 122px;"><div style="box-sizing: border-box; font-size: 0; text-align: left; color: #8C4FFF; "><div style="display: inline-block; font-size: 12px; font-family: Helvetica; color: light-dark(#8C4FFF, #b17dff); line-height: 1.2; pointer-events: all; font-weight: bold; white-space: normal; word-wrap: normal; ">VPC 10.0.0.0/16</div></div></div></foreignObject><image x="122" y="117.5" width="1608" height="17" xlink:href=""/></switch></g></g><g data-cell-id="az-1"><g transform="translate(0.5,0.5)"><rect x="130" y="150" width="760" height="840" fill="none" stroke="#147eba" stroke-dasharray="3 3" pointer-events="none" style="stroke: light-dark(rgb(20, 126, 186), rgb(69, 160, 212));"/></g><g><g><switch><foreignObject style="overflow: visible; text-align: left;" pointer-events="none" width="100%" height="100%" requiredFeatures="http://www.w3.org/TR/SVG11/feature#Extensibility"><div xmlns="http://www.w3.org/1999/xhtml" style="display: flex; align-items: unsafe flex-start; justify-content: unsafe center; width: 758px; height: 1px; padding-top: 157px; margin-left: 131px;"><div style="box-sizing: border-box; font-size: 0; text-align: center; color: #147EBA; "><div style="display: inline-block; font-size: 12px; font-family: Helvetica; color: light-dark(#147EBA, #45a0d4); line-height: 1.2; pointer-events: all; font-weight: bold; white-space: normal; word-wrap: normal; ">AZ 1</div></div></div></foreignObject><image x="131" y="157.5" width="758" height="17" xlink:href=""/></switch></g></g><g data-cell-id="subnet-pub-1"><g transform="translate(0.5,0.5)"><path d="M 160 190 L 860 190 L 860 390 L 160 390 Z" fill="#e9f3e6" stroke="#7aa116" stroke-miterlimit="10" pointer-events="none" style="fill: light-dark(rgb(233, 243, 230), rgb(24, 33, 22)); stroke: light-dark(rgb(122, 161, 22), rgb(97, 130, 11));"/><path d="M 160 190 L 185 190 L 185 215 L 160 215 Z M 172.52 193.21 C 171.4 193.21 170.31 193.63 169.49 194.39 C 168.67 195.11 168.2 196.15 168.2 197.24 L 168.2 199.78 L 165.89 199.78 C 165.8 199.78 165.7 199.82 165.64 199.89 C 165.57 199.95 165.54 200.04 165.54 200.13 L 165.54 211.43 C 165.54 211.63 165.7 211.79 165.89 211.79 L 179.11 211.79 C 179.3 211.79 179.46 211.63 179.46 211.43 L 179.46 200.15 C 179.47 200.06 179.43 199.97 179.36 199.9 C 179.3 199.83 179.21 199.79 179.11 199.79 L 176.81 199.79 L 176.81 197.29 C 176.8 196.21 176.35 195.18 175.56 194.44 C 174.74 193.65 173.65 193.22 172.52 193.21 Z M 172.51 193.93 C 173.46 193.92 174.37 194.28 175.06 194.93 C 175.72 195.54 176.1 196.4 176.1 197.29 L 176.1 199.79 L 168.88 199.79 L 168.89 197.26 C 168.9 196.36 169.28 195.51 169.95 194.91 C 170.65 194.27 171.57 193.92 172.51 193.93 Z M 166.24 200.5 L 178.76 200.5 L 178.75 211.07 L 166.24 211.07 Z M 172.51 202.74 C 171.48 202.73 170.61 203.51 170.51 204.53 C 170.42 205.56 171.13 206.48 172.14 206.66 L 172.14 209.44 L 172.86 209.44 L 172.86 206.66 C 173.79 206.49 174.47 205.67 174.48 204.72 C 174.48 203.63 173.6 202.75 172.51 202.74 Z M 172.39 203.45 C 172.43 203.45 172.47 203.45 172.51 203.46 C 172.84 203.46 173.16 203.59 173.4 203.83 C 173.64 204.07 173.77 204.39 173.76 204.72 C 173.77 205.06 173.64 205.38 173.4 205.61 C 173.16 205.85 172.84 205.98 172.51 205.98 C 172.04 206.02 171.6 205.8 171.34 205.42 C 171.08 205.03 171.06 204.53 171.28 204.12 C 171.5 203.71 171.93 203.46 172.39 203.45 Z" fill="#7aa116" stroke="none" pointer-events="all" style="fill: light-dark(rgb(122, 161, 22), rgb(97, 130, 11));"/></g><g><g><switch><foreignObject style="overflow: visible; text-align: left;" pointer-events="none" width="100%" height="100%" requiredFeatures="http://www.w3.org/TR/SVG11/feature#Extensibility"><div xmlns="http://www.w3.org/1999/xhtml" style="display: flex; align-items: unsafe flex-start; justify-content: unsafe flex-start; width: 668px; height: 1px; padding-top: 197px; margin-left: 192px;"><div style="box-sizing: border-box; font-size: 0; text-align: left; color: #7AA116; "><div style="display: inline-block; font-size: 11px; font-family: Helvetica; color: light-dark(#7AA116, #61820b); line-height: 1.2; pointer-events: all; font-weight: bold; white-space: normal; word-wrap: normal; ">Public Subnet</div></div></div></foreignObject><use x="192" y="197.5" width="668" height="15.75" href="#mx-image-17igcsy" xlink:href="#mx-image-17igcsy"/></switch></g></g><g data-cell-id="alb"><g transform="translate(0.5,0.5)"><path d="M 485 270 L 535 270 L 535 320 L 485 320 Z" fill="#8c4fff" stroke="none" pointer-events="all" style="fill: light-dark(rgb(140, 79, 255), rgb(177, 125, 255));"/><path d="M 502 305.4 C 496.27 305.4 491.6 300.73 491.6 295 C 491.6 289.27 496.27 284.6 502 284.6 C 507.73 284.6 512.4 289.27 512.4 295 C 512.4 300.73 507.73 305.4 502 305.4 M 526 310.2 C 526 311.96 524.56 313.4 522.8 313.4 C 521.04 313.4 519.6 311.96 519.6 310.2 C 519.6 308.44 521.04 307 522.8 307 C 524.56 307 526 308.44 526 310.2 M 522.8 276.6 C 524.56 276.6 526 278.04 526 279.8 C 526 281.56 524.56 283 522.8 283 C 521.04 283 519.6 281.56 519.6 279.8 C 519.6 278.04 521.04 276.6 522.8 276.6 M 525.2 291.8 C 526.96 291.8 528.4 293.24 528.4 295 C 528.4 296.76 526.96 298.2 525.2 298.2 C 523.44 298.2 522 296.76 522 295 C 522 293.24 523.44 291.8 525.2 291.8 M 513.96 295.8 L 520.47 295.8 C 520.85 298.07 522.83 299.8 525.2 299.8 C 527.85 299.8 530 297.65 530 295 C 530 292.35 527.85 290.2 525.2 290.2 C 522.83 290.2 520.85 291.93 520.47 294.2 L 513.96 294.2 C 513.86 292.68 513.48 291.24 512.86 289.92 L 519.96 283.66 C 520.75 284.25 521.74 284.6 522.8 284.6 C 525.45 284.6 527.6 282.45 527.6 279.8 C 527.6 277.15 525.45 275 522.8 275 C 520.15 275 518 277.15 518 279.8 C 518 280.8 518.31 281.74 518.84 282.51 L 512.06 288.49 C 509.92 285.19 506.22 283 502 283 C 495.38 283 490 288.38 490 295 C 490 301.62 495.38 307 502 307 C 506.22 307 509.92 304.81 512.06 301.51 L 518.84 307.49 C 518.31 308.26 518 309.2 518 310.2 C 518 312.85 520.15 315 522.8 315 C 525.45 315 527.6 312.85 527.6 310.2 C 527.6 307.55 525.45 305.4 522.8 305.4 C 521.74 305.4 520.75 305.75 519.96 306.34 L 512.86 300.08 C 513.48 298.76 513.86 297.32 513.96 295.8" fill="#ffffff" stroke="none" pointer-events="all" style="fill: light-dark(rgb(255, 255, 255), rgb(18, 18, 18));"/></g><g><g><switch><foreignObject style="overflow: visible; text-align: left;" pointer-events="none" width="100%" height="100%" requiredFeatures="http://www.w3.org/TR/SVG11/feature#Extensibility"><div xmlns="http://www.w3.org/1999/xhtml" style="display: flex; align-items: unsafe flex-start; justify-content: unsafe center; width: 1px; height: 1px; padding-top: 327px; margin-left: 510px;"><div style="box-sizing: border-box; font-size: 0; text-align: center; color: #232F3E; "><div style="display: inline-block; font-size: 11px; font-family: Helvetica; color: light-dark(#232F3E, #bdc7d4); line-height: 1.2; pointer-events: all; white-space: nowrap; ">Application Load Balancer</div></div></div></foreignObject><image x="446" y="327.5" width="128" height="15.75" xlink:href=""/></switch></g></g></g><g data-cell-id="nat"><g transform="translate(0.5,0.5)"><path d="M 730 270 L 780 270 L 780 320 L 730 320 Z" fill="#8c4fff" stroke="none" pointer-events="all" style="fill: light-dark(rgb(140, 79, 255), rgb(177, 125, 255));"/><path d="M 745.57 305.84 L 745.57 303.26 L 747.18 304.55 Z M 745.23 300.65 C 744.95 300.43 744.58 300.39 744.26 300.54 C 743.95 300.7 743.75 301.01 743.75 301.36 L 743.75 307.73 C 743.75 308.08 743.95 308.39 744.26 308.55 C 744.39 308.61 744.53 308.64 744.66 308.64 C 744.86 308.64 745.06 308.57 745.23 308.44 L 749.2 305.26 C 749.42 305.08 749.55 304.82 749.55 304.55 C 749.55 304.27 749.42 304.01 749.2 303.84 Z M 767.05 297.58 L 767.05 294.01 L 768.83 295.79 Z M 770.76 295.15 L 766.78 291.18 C 766.52 290.92 766.13 290.84 765.79 290.98 C 765.45 291.12 765.23 291.45 765.23 291.82 L 765.23 294.89 L 758.29 294.89 L 758.29 286.25 C 758.29 285.75 757.89 285.34 757.39 285.34 L 750.39 285.34 L 750.39 287.16 L 756.48 287.16 L 756.48 294.89 L 750.23 294.89 L 750.23 296.7 L 756.48 296.7 L 756.48 304.43 L 750.39 304.43 L 750.39 306.25 L 757.39 306.25 C 757.89 306.25 758.29 305.84 758.29 305.34 L 758.29 296.7 L 765.23 296.7 L 765.23 299.77 C 765.23 300.14 765.45 300.47 765.79 300.61 C 765.9 300.66 766.02 300.68 766.14 300.68 C 766.37 300.68 766.61 300.59 766.78 300.42 L 770.76 296.44 C 771.11 296.08 771.11 295.51 770.76 295.15 Z M 745.57 297.09 L 745.57 294.51 L 747.18 295.79 Z M 745.23 291.9 C 744.95 291.68 744.58 291.64 744.26 291.79 C 743.95 291.95 743.75 292.26 743.75 292.61 L 743.75 298.98 C 743.75 299.33 743.95 299.64 744.26 299.8 C 744.39 299.86 744.53 299.89 744.66 299.89 C 744.86 299.89 745.06 299.82 745.23 299.69 L 749.2 296.5 C 749.42 296.33 749.55 296.07 749.55 295.79 C 749.55 295.52 749.42 295.26 749.2 295.08 Z M 745.57 287.54 L 745.57 284.96 L 747.18 286.25 Z M 745.23 282.36 C 744.95 282.14 744.58 282.1 744.26 282.25 C 743.95 282.4 743.75 282.72 743.75 283.07 L 743.75 289.43 C 743.75 289.78 743.95 290.1 744.26 290.25 C 744.39 290.31 744.53 290.34 744.66 290.34 C 744.86 290.34 745.06 290.27 745.23 290.14 L 749.2 286.96 C 749.42 286.79 749.55 286.53 749.55 286.25 C 749.55 285.97 749.42 285.71 749.2 285.54 Z M 755 313.18 C 744.97 313.18 736.82 305.03 736.82 295 C 736.82 284.97 744.97 276.82 755 276.82 C 765.03 276.82 773.18 284.97 773.18 295 C 773.18 305.03 765.03 313.18 755 313.18 Z M 755 275 C 743.97 275 735 283.97 735 295 C 735 306.03 743.97 315 755 315 C 766.03 315 775 306.03 775 295 C 775 283.97 766.03 275 755 275 Z" fill="#ffffff" stroke="none" pointer-events="all" style="fill: light-dark(rgb(255, 255, 255), rgb(18, 18, 18));"/></g><g><g><switch><foreignObject style="overflow: visible; text-align: left;" pointer-events="none" width="100%" height="100%" requiredFeatures="http://www.w3.org/TR/SVG11/feature#Extensibility"><div xmlns="http://www.w3.org/1999/xhtml" style="display: flex; align-items: unsafe flex-start; justify-content: unsafe center; width: 1px; height: 1px; padding-top: 327px; margin-left: 755px;"><div style="box-sizing: border-box; font-size: 0; text-align: center; color: #232F3E; "><div style="display: inline-block; font-size: 11px; font-family: Helvetica; color: light-dark(#232F3E, #bdc7d4); line-height: 1.2; pointer-events: all; white-space: nowrap; ">NAT Gateway</div></div></div></foreignObject><image x="721.5" y="327.5" width="67" height="15.75" xlink:href=""/></switch></g></g></g></g><g data-cell-id="subnet-priv-1"><g transform="translate(0.5,0.5)"><path d="M 160 440 L 860 440 L 860 640 L 160 640 Z" fill="#e6f2ff" stroke="#147eba" stroke-miterlimit="10" pointer-events="none" style="fill: light-dark(rgb(230, 242, 255), rgb(22, 32, 43)); stroke: light-dark(rgb(20, 126, 186), rgb(69, 160, 212));"/><path d="M 160 440 L 185 440 L 185 465 L 160 465 Z M 172.52 443.21 C 171.4 443.21 170.31 443.63 169.49 444.39 C 168.67 445.11 168.2 446.15 168.2 447.24 L 168.2 449.78 L 165.89 449.78 C 165.8 449.78 165.7 449.82 165.64 449.89 C 165.57 449.95 165.54 450.04 165.54 450.13 L 165.54 461.43 C 165.54 461.63 165.7 461.79 165.89 461.79 L 179.11 461.79 C 179.3 461.79 179.46 461.63 179.46 461.43 L 179.46 450.15 C 179.47 450.06 179.43 449.97 179.36 449.9 C 179.3 449.83 179.21 449.79 179.11 449.79 L 176.81 449.79 L 176.81 447.29 C 176.8 446.21 176.35 445.18 175.56 444.44 C 174.74 443.65 173.65 443.22 172.52 443.21 Z M 172.51 443.93 C 173.46 443.92 174.37 444.28 175.06 444.93 C 175.72 445.54 176.1 446.4 176.1 447.29 L 176.1 449.79 L 168.88 449.79 L 168.89 447.26 C 168.9 446.36 169.28 445.51 169.95 444.91 C 170.65 444.27 171.57 443.92 172.51 443.93 Z M 166.24 450.5 L 178.76 450.5 L 178.75 461.07 L 166.24 461.07 Z M 172.51 452.74 C 171.48 452.73 170.61 453.51 170.51 454.53 C 170.42 455.56 171.13 456.48 172.14 456.66 L 172.14 459.44 L 172.86 459.44 L 172.86 456.66 C 173.79 456.49 174.47 455.67 174.48 454.72 C 174.48 453.63 173.6 452.75 172.51 452.74 Z M 172.39 453.45 C 172.43 453.45 172.47 453.45 172.51 453.46 C 172.84 453.46 173.16 453.59 173.4 453.83 C 173.64 454.07 173.77 454.39 173.76 454.72 C 173.77 455.06 173.64 455.38 173.4 455.61 C 173.16 455.85 172.84 455.98 172.51 455.98 C 172.04 456.02 171.6 455.8 171.34 455.42 C 171.08 455.03 171.06 454.53 171.28 454.12 C 171.5 453.71 171.93 453.46 172.39 453.45 Z" fill="#147eba" stroke="none" pointer-events="all" style="fill: light-dark(rgb(20, 126, 186), rgb(69, 160, 212));"/></g><g><g><switch><foreignObject style="overflow: visible; text-align: left;" pointer-events="none" width="100%" height="100%" requiredFeatures="http://www.w3.org/TR/SVG11/feature#Extensibility"><div xmlns="http://www.w3.org/1999/xhtml" style="display: flex; align-items: unsafe flex-start; justify-content: unsafe flex-start; width: 668px; height: 1px; padding-top: 447px; margin-left: 192px;"><div style="box-sizing: border-box; font-size: 0; text-align: left; color: #147EBA; "><div style="display: inline-block; font-size: 11px; font-family: Helvetica; color: light-dark(#147EBA, #45a0d4); line-height: 1.2; pointer-events: all; font-weight: bold; white-space: normal; word-wrap: normal; ">Private Subnet</div></div></div></foreignObject><use x="192" y="447.5" width="668" height="15.75" href="#mx-image-7jy938" xlink:href="#mx-image-7jy938"/></switch></g></g><g data-cell-id="ec2-1"><g transform="translate(0.5,0.5)"><path d="M 485 520 L 535 520 L 535 570 L 485 570 Z" fill="#ed7100" stroke="none" pointer-events="all" style="fill: light-dark(rgb(237, 113, 0), rgb(216, 109, 12));"/><path d="M 500.71 554.29 L 518.57 554.29 L 518.57 536.43 L 500.71 536.43 Z M 520 536.43 L 522.86 536.43 L 522.86 537.86 L 520 537.86 L 520 540.71 L 522.86 540.71 L 522.86 542.14 L 520 542.14 L 520 544.29 L 522.86 544.29 L 522.86 545.71 L 520 545.71 L 520 548.57 L 522.86 548.57 L 522.86 550 L 520 550 L 520 552.86 L 522.86 552.86 L 522.86 554.29 L 520 554.29 L 520 554.38 C 520 555.12 519.4 555.71 518.67 555.71 L 518.57 555.71 L 518.57 558.57 L 517.14 558.57 L 517.14 555.71 L 514.29 555.71 L 514.29 558.57 L 512.86 558.57 L 512.86 555.71 L 510.71 555.71 L 510.71 558.57 L 509.29 558.57 L 509.29 555.71 L 506.43 555.71 L 506.43 558.57 L 505 558.57 L 505 555.71 L 502.14 555.71 L 502.14 558.57 L 500.71 558.57 L 500.71 555.71 L 500.62 555.71 C 499.88 555.71 499.29 555.12 499.29 554.38 L 499.29 554.29 L 497.14 554.29 L 497.14 552.86 L 499.29 552.86 L 499.29 550 L 497.14 550 L 497.14 548.57 L 499.29 548.57 L 499.29 545.71 L 497.14 545.71 L 497.14 544.29 L 499.29 544.29 L 499.29 542.14 L 497.14 542.14 L 497.14 540.71 L 499.29 540.71 L 499.29 537.86 L 497.14 537.86 L 497.14 536.43 L 499.29 536.43 L 499.29 536.33 C 499.29 535.6 499.88 535 500.62 535 L 500.71 535 L 500.71 532.14 L 502.14 532.14 L 502.14 535 L 505 535 L 505 532.14 L 506.43 532.14 L 506.43 535 L 509.29 535 L 509.29 532.14 L 510.71 532.14 L 510.71 535 L 512.86 535 L 512.86 532.14 L 514.29 532.14 L 514.29 535 L 517.14 535 L 517.14 532.14 L 518.57 532.14 L 518.57 535 L 518.67 535 C 519.4 535 520 535.6 520 536.33 Z M 510.71 563.48 C 510.71 563.53 510.67 563.57 510.63 563.57 L 491.52 563.57 C 491.47 563.57 491.43 563.53 491.43 563.48 L 491.43 544.37 C 491.43 544.33 491.47 544.29 491.52 544.29 L 495.71 544.29 L 495.71 542.86 L 491.52 542.86 C 490.68 542.86 490 543.54 490 544.37 L 490 563.48 C 490 564.32 490.68 565 491.52 565 L 510.63 565 C 511.46 565 512.14 564.32 512.14 563.48 L 512.14 560 L 510.71 560 Z M 530 526.52 L 530 545.63 C 530 546.46 529.32 547.14 528.48 547.14 L 524.29 547.14 L 524.29 545.71 L 528.48 545.71 C 528.53 545.71 528.57 545.67 528.57 545.63 L 528.57 526.52 C 528.57 526.47 528.53 526.43 528.48 526.43 L 509.37 526.43 C 509.33 526.43 509.29 526.47 509.29 526.52 L 509.29 530.71 L 507.86 530.71 L 507.86 526.52 C 507.86 525.68 508.54 525 509.37 525 L 528.48 525 C 529.32 525 530 525.68 530 526.52 Z" fill="#ffffff" stroke="none" pointer-events="all" style="fill: light-dark(rgb(255, 255, 255), rgb(18, 18, 18));"/></g><g><g><switch><foreignObject style="overflow: visible; text-align: left;" pointer-events="none" width="100%" height="100%" requiredFeatures="http://www.w3.org/TR/SVG11/feature#Extensibility"><div xmlns="http://www.w3.org/1999/xhtml" style="display: flex; align-items: unsafe flex-start; justify-content: unsafe center; width: 1px; height: 1px; padding-top: 577px; margin-left: 510px;"><div style="box-sizing: border-box; font-size: 0; text-align: center; color: #232F3E; "><div style="display: inline-block; font-size: 11px; font-family: Helvetica; color: light-dark(#232F3E, #bdc7d4); line-height: 1.2; pointer-events: all; white-space: nowrap; ">Web Server</div></div></div></foreignObject><use x="481" y="577.5" width="58" height="15.75" href="#mx-image-1a1c36j" xlink:href="#mx-image-1a1c36j"/></switch></g></g></g></g><g data-cell-id="subnet-data-1"><g transform="translate(0.5,0.5)"><path d="M 160 690 L 860 690 L 860 950 L 160 950 Z" fill="#e6f2ff" stroke="#147eba" stroke-miterlimit="10" pointer-events="none" style="fill: light-dark(rgb(230, 242, 255), rgb(22, 32, 43)); stroke: light-dark(rgb(20, 126, 186), rgb(69, 160, 212));"/><path d="M 160 690 L 185 690 L 185 715 L 160 715 Z M 172.52 693.21 C 171.4 693.21 170.31 693.63 169.49 694.39 C 168.67 695.11 168.2 696.15 168.2 697.24 L 168.2 699.78 L 165.89 699.78 C 165.8 699.78 165.7 699.82 165.64 699.89 C 165.57 699.95 165.54 700.04 165.54 700.13 L 165.54 711.43 C 165.54 711.63 165.7 711.79 165.89 711.79 L 179.11 711.79 C 179.3 711.79 179.46 711.63 179.46 711.43 L 179.46 700.15 C 179.47 700.06 179.43 699.97 179.36 699.9 C 179.3 699.83 179.21 699.79 179.11 699.79 L 176.81 699.79 L 176.81 697.29 C 176.8 696.21 176.35 695.18 175.56 694.44 C 174.74 693.65 173.65 693.22 172.52 693.21 Z M 172.51 693.93 C 173.46 693.92 174.37 694.28 175.06 694.93 C 175.72 695.54 176.1 696.4 176.1 697.29 L 176.1 699.79 L 168.88 699.79 L 168.89 697.26 C 168.9 696.36 169.28 695.51 169.95 694.91 C 170.65 694.27 171.57 693.92 172.51 693.93 Z M 166.24 700.5 L 178.76 700.5 L 178.75 711.07 L 166.24 711.07 Z M 172.51 702.74 C 171.48 702.73 170.61 703.51 170.51 704.53 C 170.42 705.56 171.13 706.48 172.14 706.66 L 172.14 709.44 L 172.86 709.44 L 172.86 706.66 C 173.79 706.49 174.47 705.67 174.48 704.72 C 174.48 703.63 173.6 702.75 172.51 702.74 Z M 172.39 703.45 C 172.43 703.45 172.47 703.45 172.51 703.46 C 172.84 703.46 173.16 703.59 173.4 703.83 C 173.64 704.07 173.77 704.39 173.76 704.72 C 173.77 705.06 173.64 705.38 173.4 705.61 C 173.16 705.85 172.84 705.98 172.51 705.98 C 172.04 706.02 171.6 705.8 171.34 705.42 C 171.08 705.03 171.06 704.53 171.28 704.12 C 171.5 703.71 171.93 703.46 172.39 703.45 Z" fill="#147eba" stroke="none" pointer-events="all" style="fill: light-dark(rgb(20, 126, 186), rgb(69, 160, 212));"/></g><g><g><switch><foreignObject style="overflow: visible; text-align: left;" pointer-events="none" width="100%" height="100%" requiredFeatures="http://www.w3.org/TR/SVG11/feature#Extensibility"><div xmlns="http://www.w3.org/1999/xhtml" style="display: flex; align-items: unsafe flex-start; justify-content: unsafe flex-start; width: 668px; height: 1px; padding-top: 697px; margin-left: 192px;"><div style="box-sizing: border-box; font-size: 0; text-align: left; color: #147EBA; "><div style="display: inline-block; font-size: 11px; font-family: Helvetica; color: light-dark(#147EBA, #45a0d4); line-height: 1.2; pointer-events: all; font-weight: bold; white-space: normal; word-wrap: normal; ">Data Subnet</div></div></div></foreignObject><use x="192" y="697.5" width="668" height="15.75" href="#mx-image-lekec8" xlink:href="#mx-image-lekec8"/></switch></g></g><g data-cell-id="rds-primary"><g transform="translate(0.5,0.5)"><path d="M 485 790 L 535 790 L 535 840 L 485 840 Z" fill="#c925d1" stroke="none" pointer-events="all" style="fill: light-dark(rgb(201, 37, 209), rgb(255, 124, 255));"/><path d="M 492.44 796.43 L 499.08 803.07 L 498.07 804.08 L 491.43 797.44 L 491.43 802.86 L 490 802.86 L 490 795.71 C 490 795.32 490.32 795 490.71 795 L 497.86 795 L 497.86 796.43 Z M 530 795.71 L 530 802.86 L 528.57 802.86 L 528.57 797.44 L 521.93 804.08 L 520.92 803.07 L 527.56 796.43 L 522.14 796.43 L 522.14 795 L 529.29 795 C 529.68 795 530 795.32 530 795.71 Z M 528.57 827.14 L 530 827.14 L 530 834.29 C 530 834.68 529.68 835 529.29 835 L 522.14 835 L 522.14 833.57 L 527.56 833.57 L 520.92 826.93 L 521.93 825.92 L 528.57 832.56 Z M 528.21 814.44 C 528.21 812.07 525.48 809.73 520.89 808.17 L 521.35 806.82 C 526.62 808.6 529.64 811.38 529.64 814.44 C 529.64 817.5 526.62 820.27 521.35 822.06 L 520.89 820.7 C 525.48 819.15 528.21 816.81 528.21 814.44 Z M 491.83 814.44 C 491.83 816.71 494.39 818.99 498.68 820.54 L 498.19 821.88 C 493.24 820.09 490.4 817.38 490.4 814.44 C 490.4 811.5 493.24 808.78 498.19 806.99 L 498.68 808.34 C 494.39 809.89 491.83 812.17 491.83 814.44 Z M 499.08 826.93 L 492.44 833.57 L 497.86 833.57 L 497.86 835 L 490.71 835 C 490.32 835 490 834.68 490 834.29 L 490 827.14 L 491.43 827.14 L 491.43 832.56 L 498.07 825.92 Z M 510 808.78 C 504.9 808.78 502.14 807.46 502.14 806.92 C 502.14 806.38 504.9 805.06 510 805.06 C 515.1 805.06 517.86 806.38 517.86 806.92 C 517.86 807.46 515.1 808.78 510 808.78 Z M 510.02 814.31 C 505.13 814.31 502.14 812.97 502.14 812.25 L 502.14 808.77 C 503.9 809.75 507.02 810.2 510 810.2 C 512.98 810.2 516.1 809.75 517.86 808.77 L 517.86 812.25 C 517.86 812.97 514.88 814.31 510.02 814.31 Z M 510.02 819.76 C 505.13 819.76 502.14 818.43 502.14 817.7 L 502.14 814.19 C 503.88 815.21 506.96 815.74 510.02 815.74 C 513.07 815.74 516.13 815.21 517.86 814.19 L 517.86 817.7 C 517.86 818.43 514.88 819.76 510.02 819.76 Z M 510 824.66 C 504.92 824.66 502.14 823.29 502.14 822.59 L 502.14 819.64 C 503.88 820.66 506.96 821.19 510.02 821.19 C 513.07 821.19 516.13 820.66 517.86 819.64 L 517.86 822.59 C 517.86 823.29 515.08 824.66 510 824.66 Z M 510 803.63 C 505.53 803.63 500.71 804.66 500.71 806.92 L 500.71 822.59 C 500.71 824.88 505.39 826.08 510 826.08 C 514.61 826.08 519.29 824.88 519.29 822.59 L 519.29 806.92 C 519.29 804.66 514.47 803.63 510 803.63 Z" fill="#ffffff" stroke="none" pointer-events="all" style="fill: light-dark(rgb(255, 255, 255), rgb(18, 18, 18));"/></g><g><g><switch><foreignObject style="overflow: visible; text-align: left;" pointer-events="none" width="100%" height="100%" requiredFeatures="http://www.w3.org/TR/SVG11/feature#Extensibility"><div xmlns="http://www.w3.org/1999/xhtml" style="display: flex; align-items: unsafe flex-start; justify-content: unsafe center; width: 1px; height: 1px; padding-top: 847px; margin-left: 510px;"><div style="box-sizing: border-box; font-size: 0; text-align: center; color: #232F3E; "><div style="display: inline-block; font-size: 11px; font-family: Helvetica; color: light-dark(#232F3E, #bdc7d4); line-height: 1.2; pointer-events: all; white-space: nowrap; ">RDS Primary</div></div></div></foreignObject><image x="478" y="847.5" width="64" height="15.75" xlink:href=""/></switch></g></g></g></g></g><g data-cell-id="az-2"><g transform="translate(0.5,0.5)"><rect x="930" y="150" width="760" height="840" fill="none" stroke="#147eba" stroke-dasharray="3 3" pointer-events="none" style="stroke: light-dark(rgb(20, 126, 186), rgb(69, 160, 212));"/></g><g><g><switch><foreignObject style="overflow: visible; text-align: left;" pointer-events="none" width="100%" height="100%" requiredFeatures="http://www.w3.org/TR/SVG11/feature#Extensibility"><div xmlns="http://www.w3.org/1999/xhtml" style="display: flex; align-items: unsafe flex-start; justify-content: unsafe center; width: 758px; height: 1px; padding-top: 157px; margin-left: 931px;"><div style="box-sizing: border-box; font-size: 0; text-align: center; color: #147EBA; "><div style="display: inline-block; font-size: 12px; font-family: Helvetica; color: light-dark(#147EBA, #45a0d4); line-height: 1.2; pointer-events: all; font-weight: bold; white-space: normal; word-wrap: normal; ">AZ 2</div></div></div></foreignObject><image x="931" y="157.5" width="758" height="17" xlink:href=""/></switch></g></g><g data-cell-id="subnet-pub-2"><g transform="translate(0.5,0.5)"><path d="M 960 190 L 1660 190 L 1660 390 L 960 390 Z" fill="#e9f3e6" stroke="#7aa116" stroke-miterlimit="10" pointer-events="none" style="fill: light-dark(rgb(233, 243, 230), rgb(24, 33, 22)); stroke: light-dark(rgb(122, 161, 22), rgb(97, 130, 11));"/><path d="M 960 190 L 985 190 L 985 215 L 960 215 Z M 972.52 193.21 C 971.4 193.21 970.31 193.63 969.49 194.39 C 968.67 195.11 968.2 196.15 968.2 197.24 L 968.2 199.78 L 965.89 199.78 C 965.8 199.78 965.7 199.82 965.64 199.89 C 965.57 199.95 965.54 200.04 965.54 200.13 L 965.54 211.43 C 965.54 211.63 965.7 211.79 965.89 211.79 L 979.11 211.79 C 979.3 211.79 979.46 211.63 979.46 211.43 L 979.46 200.15 C 979.47 200.06 979.43 199.97 979.36 199.9 C 979.3 199.83 979.21 199.79 979.11 199.79 L 976.81 199.79 L 976.81 197.29 C 976.8 196.21 976.35 195.18 975.56 194.44 C 974.74 193.65 973.65 193.22 972.52 193.21 Z M 972.51 193.93 C 973.46 193.92 974.37 194.28 975.06 194.93 C 975.72 195.54 976.1 196.4 976.1 197.29 L 976.1 199.79 L 968.88 199.79 L 968.89 197.26 C 968.9 196.36 969.28 195.51 969.95 194.91 C 970.65 194.27 971.57 193.92 972.51 193.93 Z M 966.24 200.5 L 978.76 200.5 L 978.75 211.07 L 966.24 211.07 Z M 972.51 202.74 C 971.48 202.73 970.61 203.51 970.51 204.53 C 970.42 205.56 971.13 206.48 972.14 206.66 L 972.14 209.44 L 972.86 209.44 L 972.86 206.66 C 973.79 206.49 974.47 205.67 974.48 204.72 C 974.48 203.63 973.6 202.75 972.51 202.74 Z M 972.39 203.45 C 972.43 203.45 972.47 203.45 972.51 203.46 C 972.84 203.46 973.16 203.59 973.4 203.83 C 973.64 204.07 973.77 204.39 973.76 204.72 C 973.77 205.06 973.64 205.38 973.4 205.61 C 973.16 205.85 972.84 205.98 972.51 205.98 C 972.04 206.02 971.6 205.8 971.34 205.42 C 971.08 205.03 971.06 204.53 971.28 204.12 C 971.5 203.71 971.93 203.46 972.39 203.45 Z" fill="#7aa116" stroke="none" pointer-events="all" style="fill: light-dark(rgb(122, 161, 22), rgb(97, 130, 11));"/></g><g><g><switch><foreignObject style="overflow: visible; text-align: left;" pointer-events="none" width="100%" height="100%" requiredFeatures="http://www.w3.org/TR/SVG11/feature#Extensibility"><div xmlns="http://www.w3.org/1999/xhtml" style="display: flex; align-items: unsafe flex-start; justify-content: unsafe flex-start; width: 668px; height: 1px; padding-top: 197px; margin-left: 992px;"><div style="box-sizing: border-box; font-size: 0; text-align: left; color: #7AA116; "><div style="display: inline-block; font-size: 11px; font-family: Helvetica; color: light-dark(#7AA116, #61820b); line-height: 1.2; pointer-events: all; font-weight: bold; white-space: normal; word-wrap: normal; ">Public Subnet</div></div></div></foreignObject><use x="992" y="197.5" width="668" height="15.75" href="#mx-image-17igcsy" xlink:href="#mx-image-17igcsy"/></switch></g></g></g><g data-cell-id="subnet-priv-2"><g transform="translate(0.5,0.5)"><path d="M 960 440 L 1660 440 L 1660 640 L 960 640 Z" fill="#e6f2ff" stroke="#147eba" stroke-miterlimit="10" pointer-events="none" style="fill: light-dark(rgb(230, 242, 255), rgb(22, 32, 43)); stroke: light-dark(rgb(20, 126, 186), rgb(69, 160, 212));"/><path d="M 960 440 L 985 440 L 985 465 L 960 465 Z M 972.52 443.21 C 971.4 443.21 970.31 443.63 969.49 444.39 C 968.67 445.11 968.2 446.15 968.2 447.24 L 968.2 449.78 L 965.89 449.78 C 965.8 449.78 965.7 449.82 965.64 449.89 C 965.57 449.95 965.54 450.04 965.54 450.13 L 965.54 461.43 C 965.54 461.63 965.7 461.79 965.89 461.79 L 979.11 461.79 C 979.3 461.79 979.46 461.63 979.46 461.43 L 979.46 450.15 C 979.47 450.06 979.43 449.97 979.36 449.9 C 979.3 449.83 979.21 449.79 979.11 449.79 L 976.81 449.79 L 976.81 447.29 C 976.8 446.21 976.35 445.18 975.56 444.44 C 974.74 443.65 973.65 443.22 972.52 443.21 Z M 972.51 443.93 C 973.46 443.92 974.37 444.28 975.06 444.93 C 975.72 445.54 976.1 446.4 976.1 447.29 L 976.1 449.79 L 968.88 449.79 L 968.89 447.26 C 968.9 446.36 969.28 445.51 969.95 444.91 C 970.65 444.27 971.57 443.92 972.51 443.93 Z M 966.24 450.5 L 978.76 450.5 L 978.75 461.07 L 966.24 461.07 Z M 972.51 452.74 C 971.48 452.73 970.61 453.51 970.51 454.53 C 970.42 455.56 971.13 456.48 972.14 456.66 L 972.14 459.44 L 972.86 459.44 L 972.86 456.66 C 973.79 456.49 974.47 455.67 974.48 454.72 C 974.48 453.63 973.6 452.75 972.51 452.74 Z M 972.39 453.45 C 972.43 453.45 972.47 453.45 972.51 453.46 C 972.84 453.46 973.16 453.59 973.4 453.83 C 973.64 454.07 973.77 454.39 973.76 454.72 C 973.77 455.06 973.64 455.38 973.4 455.61 C 973.16 455.85 972.84 455.98 972.51 455.98 C 972.04 456.02 971.6 455.8 971.34 455.42 C 971.08 455.03 971.06 454.53 971.28 454.12 C 971.5 453.71 971.93 453.46 972.39 453.45 Z" fill="#147eba" stroke="none" pointer-events="all" style="fill: light-dark(rgb(20, 126, 186), rgb(69, 160, 212));"/></g><g><g><switch><foreignObject style="overflow: visible; text-align: left;" pointer-events="none" width="100%" height="100%" requiredFeatures="http://www.w3.org/TR/SVG11/feature#Extensibility"><div xmlns="http://www.w3.org/1999/xhtml" style="display: flex; align-items: unsafe flex-start; justify-content: unsafe flex-start; width: 668px; height: 1px; padding-top: 447px; margin-left: 992px;"><div style="box-sizing: border-box; font-size: 0; text-align: left; color: #147EBA; "><div style="display: inline-block; font-size: 11px; font-family: Helvetica; color: light-dark(#147EBA, #45a0d4); line-height: 1.2; pointer-events: all; font-weight: bold; white-space: normal; word-wrap: normal; ">Private Subnet</div></div></div></foreignObject><use x="992" y="447.5" width="668" height="15.75" href="#mx-image-7jy938" xlink:href="#mx-image-7jy938"/></switch></g></g><g data-cell-id="ec2-2"><g transform="translate(0.5,0.5)"><path d="M 1285 520 L 1335 520 L 1335 570 L 1285 570 Z" fill="#ed7100" stroke="none" pointer-events="all" style="fill: light-dark(rgb(237, 113, 0), rgb(216, 109, 12));"/><path d="M 1300.71 554.29 L 1318.57 554.29 L 1318.57 536.43 L 1300.71 536.43 Z M 1320 536.43 L 1322.86 536.43 L 1322.86 537.86 L 1320 537.86 L 1320 540.71 L 1322.86 540.71 L 1322.86 542.14 L 1320 542.14 L 1320 544.29 L 1322.86 544.29 L 1322.86 545.71 L 1320 545.71 L 1320 548.57 L 1322.86 548.57 L 1322.86 550 L 1320 550 L 1320 552.86 L 1322.86 552.86 L 1322.86 554.29 L 1320 554.29 L 1320 554.38 C 1320 555.12 1319.4 555.71 1318.67 555.71 L 1318.57 555.71 L 1318.57 558.57 L 1317.14 558.57 L 1317.14 555.71 L 1314.29 555.71 L 1314.29 558.57 L 1312.86 558.57 L 1312.86 555.71 L 1310.71 555.71 L 1310.71 558.57 L 1309.29 558.57 L 1309.29 555.71 L 1306.43 555.71 L 1306.43 558.57 L 1305 558.57 L 1305 555.71 L 1302.14 555.71 L 1302.14 558.57 L 1300.71 558.57 L 1300.71 555.71 L 1300.62 555.71 C 1299.88 555.71 1299.29 555.12 1299.29 554.38 L 1299.29 554.29 L 1297.14 554.29 L 1297.14 552.86 L 1299.29 552.86 L 1299.29 550 L 1297.14 550 L 1297.14 548.57 L 1299.29 548.57 L 1299.29 545.71 L 1297.14 545.71 L 1297.14 544.29 L 1299.29 544.29 L 1299.29 542.14 L 1297.14 542.14 L 1297.14 540.71 L 1299.29 540.71 L 1299.29 537.86 L 1297.14 537.86 L 1297.14 536.43 L 1299.29 536.43 L 1299.29 536.33 C 1299.29 535.6 1299.88 535 1300.62 535 L 1300.71 535 L 1300.71 532.14 L 1302.14 532.14 L 1302.14 535 L 1305 535 L 1305 532.14 L 1306.43 532.14 L 1306.43 535 L 1309.29 535 L 1309.29 532.14 L 1310.71 532.14 L 1310.71 535 L 1312.86 535 L 1312.86 532.14 L 1314.29 532.14 L 1314.29 535 L 1317.14 535 L 1317.14 532.14 L 1318.57 532.14 L 1318.57 535 L 1318.67 535 C 1319.4 535 1320 535.6 1320 536.33 Z M 1310.71 563.48 C 1310.71 563.53 1310.67 563.57 1310.63 563.57 L 1291.52 563.57 C 1291.47 563.57 1291.43 563.53 1291.43 563.48 L 1291.43 544.37 C 1291.43 544.33 1291.47 544.29 1291.52 544.29 L 1295.71 544.29 L 1295.71 542.86 L 1291.52 542.86 C 1290.68 542.86 1290 543.54 1290 544.37 L 1290 563.48 C 1290 564.32 1290.68 565 1291.52 565 L 1310.63 565 C 1311.46 565 1312.14 564.32 1312.14 563.48 L 1312.14 560 L 1310.71 560 Z M 1330 526.52 L 1330 545.63 C 1330 546.46 1329.32 547.14 1328.48 547.14 L 1324.29 547.14 L 1324.29 545.71 L 1328.48 545.71 C 1328.53 545.71 1328.57 545.67 1328.57 545.63 L 1328.57 526.52 C 1328.57 526.47 1328.53 526.43 1328.48 526.43 L 1309.37 526.43 C 1309.33 526.43 1309.29 526.47 1309.29 526.52 L 1309.29 530.71 L 1307.86 530.71 L 1307.86 526.52 C 1307.86 525.68 1308.54 525 1309.37 525 L 1328.48 525 C 1329.32 525 1330 525.68 1330 526.52 Z" fill="#ffffff" stroke="none" pointer-events="all" style="fill: light-dark(rgb(255, 255, 255), rgb(18, 18, 18));"/></g><g><g><switch><foreignObject style="overflow: visible; text-align: left;" pointer-events="none" width="100%" height="100%" requiredFeatures="http://www.w3.org/TR/SVG11/feature#Extensibility"><div xmlns="http://www.w3.org/1999/xhtml" style="display: flex; align-items: unsafe flex-start; justify-content: unsafe center; width: 1px; height: 1px; padding-top: 577px; margin-left: 1310px;"><div style="box-sizing: border-box; font-size: 0; text-align: center; color: #232F3E; "><div style="display: inline-block; font-size: 11px; font-family: Helvetica; color: light-dark(#232F3E, #bdc7d4); line-height: 1.2; pointer-events: all; white-space: nowrap; ">Web Server</div></div></div></foreignObject><use x="1281" y="577.5" width="58" height="15.75" href="#mx-image-1a1c36j" xlink:href="#mx-image-1a1c36j"/></switch></g></g></g></g><g data-cell-id="subnet-data-2"><g transform="translate(0.5,0.5)"><path d="M 960 690 L 1660 690 L 1660 950 L 960 950 Z" fill="#e6f2ff" stroke="#147eba" stroke-miterlimit="10" pointer-events="none" style="fill: light-dark(rgb(230, 242, 255), rgb(22, 32, 43)); stroke: light-dark(rgb(20, 126, 186), rgb(69, 160, 212));"/><path d="M 960 690 L 985 690 L 985 715 L 960 715 Z M 972.52 693.21 C 971.4 693.21 970.31 693.63 969.49 694.39 C 968.67 695.11 968.2 696.15 968.2 697.24 L 968.2 699.78 L 965.89 699.78 C 965.8 699.78 965.7 699.82 965.64 699.89 C 965.57 699.95 965.54 700.04 965.54 700.13 L 965.54 711.43 C 965.54 711.63 965.7 711.79 965.89 711.79 L 979.11 711.79 C 979.3 711.79 979.46 711.63 979.46 711.43 L 979.46 700.15 C 979.47 700.06 979.43 699.97 979.36 699.9 C 979.3 699.83 979.21 699.79 979.11 699.79 L 976.81 699.79 L 976.81 697.29 C 976.8 696.21 976.35 695.18 975.56 694.44 C 974.74 693.65 973.65 693.22 972.52 693.21 Z M 972.51 693.93 C 973.46 693.92 974.37 694.28 975.06 694.93 C 975.72 695.54 976.1 696.4 976.1 697.29 L 976.1 699.79 L 968.88 699.79 L 968.89 697.26 C 968.9 696.36 969.28 695.51 969.95 694.91 C 970.65 694.27 971.57 693.92 972.51 693.93 Z M 966.24 700.5 L 978.76 700.5 L 978.75 711.07 L 966.24 711.07 Z M 972.51 702.74 C 971.48 702.73 970.61 703.51 970.51 704.53 C 970.42 705.56 971.13 706.48 972.14 706.66 L 972.14 709.44 L 972.86 709.44 L 972.86 706.66 C 973.79 706.49 974.47 705.67 974.48 704.72 C 974.48 703.63 973.6 702.75 972.51 702.74 Z M 972.39 703.45 C 972.43 703.45 972.47 703.45 972.51 703.46 C 972.84 703.46 973.16 703.59 973.4 703.83 C 973.64 704.07 973.77 704.39 973.76 704.72 C 973.77 705.06 973.64 705.38 973.4 705.61 C 973.16 705.85 972.84 705.98 972.51 705.98 C 972.04 706.02 971.6 705.8 971.34 705.42 C 971.08 705.03 971.06 704.53 971.28 704.12 C 971.5 703.71 971.93 703.46 972.39 703.45 Z" fill="#147eba" stroke="none" pointer-events="all" style="fill: light-dark(rgb(20, 126, 186), rgb(69, 160, 212));"/></g><g><g><switch><foreignObject style="overflow: visible; text-align: left;" pointer-events="none" width="100%" height="100%" requiredFeatures="http://www.w3.org/TR/SVG11/feature#Extensibility"><div xmlns="http://www.w3.org/1999/xhtml" style="display: flex; align-items: unsafe flex-start; justify-content: unsafe flex-start; width: 668px; height: 1px; padding-top: 697px; margin-left: 992px;"><div style="box-sizing: border-box; font-size: 0; text-align: left; color: #147EBA; "><div style="display: inline-block; font-size: 11px; font-family: Helvetica; color: light-dark(#147EBA, #45a0d4); line-height: 1.2; pointer-events: all; font-weight: bold; white-space: normal; word-wrap: normal; ">Data Subnet</div></div></div></foreignObject><use x="992" y="697.5" width="668" height="15.75" href="#mx-image-lekec8" xlink:href="#mx-image-lekec8"/></switch></g></g><g data-cell-id="rds-standby"><g transform="translate(0.5,0.5)"><path d="M 1285 790 L 1335 790 L 1335 840 L 1285 840 Z" fill="#c925d1" stroke="none" pointer-events="all" style="fill: light-dark(rgb(201, 37, 209), rgb(255, 124, 255));"/><path d="M 1292.44 796.43 L 1299.08 803.07 L 1298.07 804.08 L 1291.43 797.44 L 1291.43 802.86 L 1290 802.86 L 1290 795.71 C 1290 795.32 1290.32 795 1290.71 795 L 1297.86 795 L 1297.86 796.43 Z M 1330 795.71 L 1330 802.86 L 1328.57 802.86 L 1328.57 797.44 L 1321.93 804.08 L 1320.92 803.07 L 1327.56 796.43 L 1322.14 796.43 L 1322.14 795 L 1329.29 795 C 1329.68 795 1330 795.32 1330 795.71 Z M 1328.57 827.14 L 1330 827.14 L 1330 834.29 C 1330 834.68 1329.68 835 1329.29 835 L 1322.14 835 L 1322.14 833.57 L 1327.56 833.57 L 1320.92 826.93 L 1321.93 825.92 L 1328.57 832.56 Z M 1328.21 814.44 C 1328.21 812.07 1325.48 809.73 1320.89 808.17 L 1321.35 806.82 C 1326.62 808.6 1329.64 811.38 1329.64 814.44 C 1329.64 817.5 1326.62 820.27 1321.35 822.06 L 1320.89 820.7 C 1325.48 819.15 1328.21 816.81 1328.21 814.44 Z M 1291.83 814.44 C 1291.83 816.71 1294.39 818.99 1298.68 820.54 L 1298.19 821.88 C 1293.24 820.09 1290.4 817.38 1290.4 814.44 C 1290.4 811.5 1293.24 808.78 1298.19 806.99 L 1298.68 808.34 C 1294.39 809.89 1291.83 812.17 1291.83 814.44 Z M 1299.08 826.93 L 1292.44 833.57 L 1297.86 833.57 L 1297.86 835 L 1290.71 835 C 1290.32 835 1290 834.68 1290 834.29 L 1290 827.14 L 1291.43 827.14 L 1291.43 832.56 L 1298.07 825.92 Z M 1310 808.78 C 1304.9 808.78 1302.14 807.46 1302.14 806.92 C 1302.14 806.38 1304.9 805.06 1310 805.06 C 1315.1 805.06 1317.86 806.38 1317.86 806.92 C 1317.86 807.46 1315.1 808.78 1310 808.78 Z M 1310.02 814.31 C 1305.13 814.31 1302.14 812.97 1302.14 812.25 L 1302.14 808.77 C 1303.9 809.75 1307.02 810.2 1310 810.2 C 1312.98 810.2 1316.1 809.75 1317.86 808.77 L 1317.86 812.25 C 1317.86 812.97 1314.88 814.31 1310.02 814.31 Z M 1310.02 819.76 C 1305.13 819.76 1302.14 818.43 1302.14 817.7 L 1302.14 814.19 C 1303.88 815.21 1306.96 815.74 1310.02 815.74 C 1313.07 815.74 1316.13 815.21 1317.86 814.19 L 1317.86 817.7 C 1317.86 818.43 1314.88 819.76 1310.02 819.76 Z M 1310 824.66 C 1304.92 824.66 1302.14 823.29 1302.14 822.59 L 1302.14 819.64 C 1303.88 820.66 1306.96 821.19 1310.02 821.19 C 1313.07 821.19 1316.13 820.66 1317.86 819.64 L 1317.86 822.59 C 1317.86 823.29 1315.08 824.66 1310 824.66 Z M 1310 803.63 C 1305.53 803.63 1300.71 804.66 1300.71 806.92 L 1300.71 822.59 C 1300.71 824.88 1305.39 826.08 1310 826.08 C 1314.61 826.08 1319.29 824.88 1319.29 822.59 L 1319.29 806.92 C 1319.29 804.66 1314.47 803.63 1310 803.63 Z" fill="#ffffff" stroke="none" pointer-events="all" style="fill: light-dark(rgb(255, 255, 255), rgb(18, 18, 18));"/></g><g><g><switch><foreignObject style="overflow: visible; text-align: left;" pointer-events="none" width="100%" height="100%" requiredFeatures="http://www.w3.org/TR/SVG11/feature#Extensibility"><div xmlns="http://www.w3.org/1999/xhtml" style="display: flex; align-items: unsafe flex-start; justify-content: unsafe center; width: 1px; height: 1px; padding-top: 847px; margin-left: 1310px;"><div style="box-sizing: border-box; font-size: 0; text-align: center; color: #232F3E; "><div style="display: inline-block; font-size: 11px; font-family: Helvetica; color: light-dark(#232F3E, #bdc7d4); line-height: 1.2; pointer-events: all; white-space: nowrap; ">RDS Standby</div></div></div></foreignObject><image x="1276.5" y="847.5" width="67" height="15.75" xlink:href=""/></switch></g></g></g></g></g><g data-cell-id="igw"><g transform="translate(0.5,0.5)"><path d="M 870 85 L 920 85 L 920 135 L 870 135 Z" fill="#8c4fff" stroke="none" pointer-events="all" style="fill: light-dark(rgb(140, 79, 255), rgb(177, 125, 255));"/><path d="M 903.63 120.22 L 902.27 120.22 L 902.27 104.12 C 902.27 103.76 902.06 103.44 901.73 103.29 L 901.65 103.25 C 899.82 102.43 897.92 101.57 895.2 101.57 C 892.36 101.57 890.27 102.49 888.21 103.52 C 887.9 103.67 887.7 103.99 887.7 104.33 L 887.7 120.22 L 886.37 120.22 L 886.37 103.04 C 888.58 101.24 891.78 100.21 895.21 100.21 C 898.4 100.21 901.44 101.12 903.63 102.71 Z M 895.21 98.39 C 891.18 98.39 887.41 99.68 884.85 101.93 C 884.66 102.11 884.54 102.35 884.54 102.62 L 884.54 121.14 C 884.54 121.64 884.95 122.05 885.46 122.05 L 888.61 122.05 C 889.11 122.05 889.52 121.64 889.52 121.14 L 889.52 104.9 C 891.27 104.06 892.96 103.39 895.2 103.39 C 897.33 103.39 898.88 104.01 900.45 104.71 L 900.45 121.14 C 900.45 121.64 900.85 122.05 901.36 122.05 L 904.54 122.05 C 905.05 122.05 905.46 121.64 905.46 121.14 L 905.46 102.26 C 905.46 101.98 905.33 101.72 905.11 101.55 C 902.58 99.54 898.98 98.39 895.21 98.39 Z M 895 128.18 C 884.98 128.18 876.82 120.02 876.82 110 C 876.82 99.98 884.98 91.82 895 91.82 C 905.02 91.82 913.18 99.98 913.18 110 C 913.18 120.02 905.02 128.18 895 128.18 Z M 895 90 C 883.97 90 875 98.97 875 110 C 875 121.03 883.97 130 895 130 C 906.03 130 915 121.03 915 110 C 915 98.97 906.03 90 895 90 Z" fill="#ffffff" stroke="none" pointer-events="all" style="fill: light-dark(rgb(255, 255, 255), rgb(18, 18, 18));"/></g><g><g><switch><foreignObject style="overflow: visible; text-align: left;" pointer-events="none" width="100%" height="100%" requiredFeatures="http://www.w3.org/TR/SVG11/feature#Extensibility"><div xmlns="http://www.w3.org/1999/xhtml" style="display: flex; align-items: unsafe flex-start; justify-content: unsafe center; width: 1px; height: 1px; padding-top: 142px; margin-left: 895px;"><div style="box-sizing: border-box; font-size: 0; text-align: center; color: #232F3E; "><div style="display: inline-block; font-size: 12px; font-family: Helvetica; color: light-dark(#232F3E, #bdc7d4); line-height: 1.2; pointer-events: all; white-space: nowrap; ">Internet Gateway</div></div></div></foreignObject><image x="849.5" y="142.5" width="91" height="17" xlink:href=""/></switch></g></g></g></g></g></g><g data-cell-id="users"><g><rect x="860" y="1120" width="70" height="70" fill="none" stroke="none" pointer-events="all"/><path d="M 902.38 1131.59 C 902.38 1126.95 906.22 1123.18 910.94 1123.18 C 915.66 1123.18 919.5 1126.95 919.5 1131.59 C 919.5 1136.23 915.66 1140 910.94 1140 C 906.22 1140 902.38 1136.23 902.38 1131.59 Z M 920.71 1142.8 C 919.68 1142.16 918.6 1141.64 917.48 1141.21 C 920.61 1139.13 922.68 1135.59 922.68 1131.59 C 922.68 1125.2 917.41 1120 910.94 1120 C 904.47 1120 899.2 1125.2 899.2 1131.59 C 899.2 1135.58 901.26 1139.11 904.38 1141.2 C 902.34 1141.97 900.42 1143.09 898.74 1144.54 L 900.81 1146.95 C 903.64 1144.52 907.23 1143.18 910.91 1143.18 C 913.78 1143.18 916.59 1143.99 919.04 1145.51 C 923.4 1148.21 926.26 1152.97 926.74 1158.18 L 910.91 1158.18 L 910.91 1161.36 L 928.41 1161.36 C 929.29 1161.36 930 1160.65 930 1159.77 C 930 1152.86 926.44 1146.36 920.71 1142.8 Z M 870.56 1131.59 C 870.56 1126.95 874.4 1123.18 879.12 1123.18 C 883.84 1123.18 887.68 1126.95 887.68 1131.59 C 887.68 1136.23 883.84 1140 879.12 1140 C 874.4 1140 870.56 1136.23 870.56 1131.59 Z M 879.09 1158.18 L 863.25 1158.18 C 864.02 1149.78 870.83 1143.18 879.09 1143.18 C 881.96 1143.18 884.77 1143.99 887.22 1145.51 C 887.91 1145.93 888.57 1146.42 889.19 1146.95 L 891.26 1144.54 C 890.52 1143.9 889.72 1143.32 888.9 1142.8 C 887.87 1142.16 886.78 1141.64 885.66 1141.21 C 888.79 1139.13 890.86 1135.59 890.86 1131.59 C 890.86 1125.2 885.59 1120 879.12 1120 C 872.65 1120 867.38 1125.2 867.38 1131.59 C 867.38 1135.59 869.45 1139.13 872.58 1141.21 C 865.25 1143.98 860 1151.24 860 1159.77 C 860 1160.65 860.71 1161.36 861.59 1161.36 L 879.09 1161.36 Z M 879.16 1186.82 C 879.93 1178.41 886.74 1171.82 895 1171.82 C 897.87 1171.82 900.68 1172.62 903.13 1174.14 C 907.49 1176.85 910.35 1181.61 910.83 1186.82 Z M 886.47 1160.23 C 886.47 1155.59 890.31 1151.82 895.03 1151.82 C 899.75 1151.82 903.59 1155.59 903.59 1160.23 C 903.59 1164.87 899.75 1168.64 895.03 1168.64 C 890.31 1168.64 886.47 1164.87 886.47 1160.23 Z M 904.8 1171.44 C 903.78 1170.8 902.69 1170.27 901.57 1169.85 C 904.7 1167.76 906.77 1164.23 906.77 1160.23 C 906.77 1153.84 901.5 1148.64 895.03 1148.64 C 888.56 1148.64 883.29 1153.84 883.29 1160.23 C 883.29 1164.23 885.35 1167.76 888.49 1169.85 C 881.16 1172.61 875.91 1179.88 875.91 1188.41 C 875.91 1189.29 876.62 1190 877.5 1190 L 912.5 1190 C 913.38 1190 914.09 1189.29 914.09 1188.41 C 914.09 1181.5 910.53 1175 904.8 1171.44 Z" fill="#232f3e" stroke="none" pointer-events="all" style="fill: light-dark(rgb(35, 47, 62), rgb(189, 199, 212));"/></g><g><g><switch><foreignObject style="overflow: visible; text-align: left;" pointer-events="none" width="100%" height="100%" requiredFeatures="http://www.w3.org/TR/SVG11/feature#Extensibility"><div xmlns="http://www.w3.org/1999/xhtml" style="display: flex; align-items: unsafe flex-start; justify-content: unsafe center; width: 1px; height: 1px; padding-top: 1197px; margin-left: 895px;"><div style="box-sizing: border-box; font-size: 0; text-align: center; color: #232F3E; "><div style="display: inline-block; font-size: 12px; font-family: Helvetica; color: light-dark(#232F3E, #bdc7d4); line-height: 1.2; pointer-events: all; white-space: nowrap; ">Users</div></div></div></foreignObject><image x="879.5" y="1197.5" width="31" height="17" xlink:href=""/></switch></g></g></g><g data-cell-id="edge-users-igw"><g><path d="M 895 1120 L 895 139.47" fill="none" stroke="#545b64" stroke-width="2" stroke-miterlimit="10" pointer-events="stroke" style="stroke: light-dark(rgb(84, 91, 100), rgb(154, 160, 168));"/><path d="M 899 145.24 L 895 137.24 L 891 145.24" fill="none" stroke="#545b64" stroke-width="2" stroke-miterlimit="10" pointer-events="all" style="stroke: light-dark(rgb(84, 91, 100), rgb(154, 160, 168));"/></g><g><g><switch><foreignObject style="overflow: visible; text-align: left;" pointer-events="none" width="100%" height="100%" requiredFeatures="http://www.w3.org/TR/SVG11/feature#Extensibility"><div xmlns="http://www.w3.org/1999/xhtml" style="display: flex; align-items: unsafe center; justify-content: unsafe center; width: 1px; height: 1px; padding-top: 627px; margin-left: 895px;"><div style="box-sizing: border-box; font-size: 0; text-align: center; color: #000000; background-color: #ffffff; "><div style="display: inline-block; font-size: 10px; font-family: Helvetica; color: light-dark(#000000, #ffffff); line-height: 1.2; pointer-events: all; background-color: var(--ge-adaptive-bg, #ffffff); white-space: nowrap; ">HTTPS:443</div></div></div></foreignObject><use x="869" y="621.5" width="52" height="14.5" href="#mx-image-1fw2ozw" xlink:href="#mx-image-1fw2ozw"/></switch></g></g></g><g data-cell-id="edge-igw-alb"><g><path d="M 870 110 L 510 110 L 510 265.53" fill="none" stroke="#545b64" stroke-width="2" stroke-miterlimit="10" pointer-events="stroke" style="stroke: light-dark(rgb(84, 91, 100), rgb(154, 160, 168));"/><path d="M 506 259.76 L 510 267.76 L 514 259.76" fill="none" stroke="#545b64" stroke-width="2" stroke-miterlimit="10" pointer-events="all" style="stroke: light-dark(rgb(84, 91, 100), rgb(154, 160, 168));"/></g><g><g><switch><foreignObject style="overflow: visible; text-align: left;" pointer-events="none" width="100%" height="100%" requiredFeatures="http://www.w3.org/TR/SVG11/feature#Extensibility"><div xmlns="http://www.w3.org/1999/xhtml" style="display: flex; align-items: unsafe center; justify-content: unsafe center; width: 1px; height: 1px; padding-top: 110px; margin-left: 610px;"><div style="box-sizing: border-box; font-size: 0; text-align: center; color: #000000; background-color: #ffffff; "><div style="display: inline-block; font-size: 10px; font-family: Helvetica; color: light-dark(#000000, #ffffff); line-height: 1.2; pointer-events: all; background-color: var(--ge-adaptive-bg, #ffffff); white-space: nowrap; ">HTTPS:443</div></div></div></foreignObject><use x="584" y="104.5" width="52" height="14.5" href="#mx-image-1fw2ozw" xlink:href="#mx-image-1fw2ozw"/></switch></g></g></g><g data-cell-id="edge-alb-ec2-1"><g><path d="M 510 320 L 510 390 L 510 515.53" fill="none" stroke="#545b64" stroke-width="2" stroke-miterlimit="10" pointer-events="stroke" style="stroke: light-dark(rgb(84, 91, 100), rgb(154, 160, 168));"/><path d="M 506 509.76 L 510 517.76 L 514 509.76" fill="none" stroke="#545b64" stroke-width="2" stroke-miterlimit="10" pointer-events="all" style="stroke: light-dark(rgb(84, 91, 100), rgb(154, 160, 168));"/></g><g><g><switch><foreignObject style="overflow: visible; text-align: left;" pointer-events="none" width="100%" height="100%" requiredFeatures="http://www.w3.org/TR/SVG11/feature#Extensibility"><div xmlns="http://www.w3.org/1999/xhtml" style="display: flex; align-items: unsafe center; justify-content: unsafe center; width: 1px; height: 1px; padding-top: 420px; margin-left: 510px;"><div style="box-sizing: border-box; font-size: 0; text-align: center; color: #000000; background-color: #ffffff; "><div style="display: inline-block; font-size: 10px; font-family: Helvetica; color: light-dark(#000000, #ffffff); line-height: 1.2; pointer-events: all; background-color: var(--ge-adaptive-bg, #ffffff); white-space: nowrap; ">HTTP:80</div></div></div></foreignObject><use x="490" y="414.5" width="40" height="14.5" href="#mx-image-in3q84" xlink:href="#mx-image-in3q84"/></switch></g></g></g><g data-cell-id="edge-alb-ec2-2"><g><path d="M 510 320 L 510 390 L 1310 390 L 1310 490 L 1310 515.53" fill="none" stroke="#545b64" stroke-width="2" stroke-miterlimit="10" pointer-events="stroke" style="stroke: light-dark(rgb(84, 91, 100), rgb(154, 160, 168));"/><path d="M 1306 509.76 L 1310 517.76 L 1314 509.76" fill="none" stroke="#545b64" stroke-width="2" stroke-miterlimit="10" pointer-events="all" style="stroke: light-dark(rgb(84, 91, 100), rgb(154, 160, 168));"/></g><g><g><switch><foreignObject style="overflow: visible; text-align: left;" pointer-events="none" width="100%" height="100%" requiredFeatures="http://www.w3.org/TR/SVG11/feature#Extensibility"><div xmlns="http://www.w3.org/1999/xhtml" style="display: flex; align-items: unsafe center; justify-content: unsafe center; width: 1px; height: 1px; padding-top: 390px; margin-left: 940px;"><div style="box-sizing: border-box; font-size: 0; text-align: center; color: #000000; background-color: #ffffff; "><div style="display: inline-block; font-size: 10px; font-family: Helvetica; color: light-dark(#000000, #ffffff); line-height: 1.2; pointer-events: all; background-color: var(--ge-adaptive-bg, #ffffff); white-space: nowrap; ">HTTP:80</div></div></div></foreignObject><use x="920" y="384.5" width="40" height="14.5" href="#mx-image-in3q84" xlink:href="#mx-image-in3q84"/></switch></g></g></g><g data-cell-id="edge-ec2-1-rds"><g><path d="M 510 570 L 510 785.53" fill="none" stroke="#545b64" stroke-width="2" stroke-miterlimit="10" pointer-events="stroke" style="stroke: light-dark(rgb(84, 91, 100), rgb(154, 160, 168));"/><path d="M 506 779.76 L 510 787.76 L 514 779.76" fill="none" stroke="#545b64" stroke-width="2" stroke-miterlimit="10" pointer-events="all" style="stroke: light-dark(rgb(84, 91, 100), rgb(154, 160, 168));"/></g><g><g><switch><foreignObject style="overflow: visible; text-align: left;" pointer-events="none" width="100%" height="100%" requiredFeatures="http://www.w3.org/TR/SVG11/feature#Extensibility"><div xmlns="http://www.w3.org/1999/xhtml" style="display: flex; align-items: unsafe center; justify-content: unsafe center; width: 1px; height: 1px; padding-top: 680px; margin-left: 510px;"><div style="box-sizing: border-box; font-size: 0; text-align: center; color: #000000; background-color: #ffffff; "><div style="display: inline-block; font-size: 10px; font-family: Helvetica; color: light-dark(#000000, #ffffff); line-height: 1.2; pointer-events: all; background-color: var(--ge-adaptive-bg, #ffffff); white-space: nowrap; ">TCP:5432</div></div></div></foreignObject><use x="487.5" y="674.5" width="45" height="14.5" href="#mx-image-10nee2x" xlink:href="#mx-image-10nee2x"/></switch></g></g></g><g data-cell-id="edge-ec2-2-rds"><g><path d="M 1310 570 L 1310 670 L 510 670 L 510 785.53" fill="none" stroke="#545b64" stroke-width="2" stroke-miterlimit="10" pointer-events="stroke" style="stroke: light-dark(rgb(84, 91, 100), rgb(154, 160, 168));"/><path d="M 506 779.76 L 510 787.76 L 514 779.76" fill="none" stroke="#545b64" stroke-width="2" stroke-miterlimit="10" pointer-events="all" style="stroke: light-dark(rgb(84, 91, 100), rgb(154, 160, 168));"/></g><g><g><switch><foreignObject style="overflow: visible; text-align: left;" pointer-events="none" width="100%" height="100%" requiredFeatures="http://www.w3.org/TR/SVG11/feature#Extensibility"><div xmlns="http://www.w3.org/1999/xhtml" style="display: flex; align-items: unsafe center; justify-content: unsafe center; width: 1px; height: 1px; padding-top: 670px; margin-left: 900px;"><div style="box-sizing: border-box; font-size: 0; text-align: center; color: #000000; background-color: #ffffff; "><div style="display: inline-block; font-size: 10px; font-family: Helvetica; color: light-dark(#000000, #ffffff); line-height: 1.2; pointer-events: all; background-color: var(--ge-adaptive-bg, #ffffff); white-space: nowrap; ">TCP:5432</div></div></div></foreignObject><use x="877.5" y="664.5" width="45" height="14.5" href="#mx-image-10nee2x" xlink:href="#mx-image-10nee2x"/></switch></g></g></g><g data-cell-id="edge-rds-repl"><g><path d="M 535 815 L 1280.53 815" fill="none" stroke="#c925d1" stroke-width="2" stroke-miterlimit="10" stroke-dasharray="6 6" pointer-events="stroke" style="stroke: light-dark(rgb(201, 37, 209), rgb(255, 124, 255));"/><path d="M 1274.76 819 L 1282.76 815 L 1274.76 811" fill="none" stroke="#c925d1" stroke-width="2" stroke-miterlimit="10" pointer-events="all" style="stroke: light-dark(rgb(201, 37, 209), rgb(255, 124, 255));"/></g><g><g><switch><foreignObject style="overflow: visible; text-align: left;" pointer-events="none" width="100%" height="100%" requiredFeatures="http://www.w3.org/TR/SVG11/feature#Extensibility"><div xmlns="http://www.w3.org/1999/xhtml" style="display: flex; align-items: unsafe center; justify-content: unsafe center; width: 1px; height: 1px; padding-top: 815px; margin-left: 910px;"><div style="box-sizing: border-box; font-size: 0; text-align: center; color: #000000; background-color: #ffffff; "><div style="display: inline-block; font-size: 10px; font-family: Helvetica; color: light-dark(#000000, #ffffff); line-height: 1.2; pointer-events: all; background-color: var(--ge-adaptive-bg, #ffffff); white-space: nowrap; ">Replication</div></div></div></foreignObject><image x="885.5" y="809.5" width="49" height="14.5" xlink:href=""/></switch></g></g></g></g></g></g><switch><g requiredFeatures="http://www.w3.org/TR/SVG11/feature#Extensibility"/><a transform="translate(0,-5)" xlink:href="https://www.drawio.com/doc/faq/svg-export-text-problems" target="_blank"><text text-anchor="middle" font-size="10px" x="50%" y="100%">Text is not SVG - cannot display</text></a></switch></svg>