<?xml version="1.0" encoding="UTF-8"?>
<!DOCTYPE svg PUBLIC "-//W3C//DTD SVG 1.1//EN" "http://www.w3.org/Graphics/SVG/1.1/DTD/svg11.dtd">
<svg xmlns="http://www.w3.org/2000/svg" style="background: transparent; background-color: transparent; color-scheme: light dark;" xmlns:xlink="http://www.w3.org/1999/xlink" version="1.1" width="1481px" height="1153px" viewBox="0 0 1481 1153"><defs><symbol id="mx-symbol-l9r8kh" viewBox="0 0 20 20" preserveAspectRatio="none" style="color-scheme: light dark;">&#xa;	<style type="text/css">#mx-symbol-l9r8kh .mx-symbol-l9r8kh-st0 { fill: var(--mx-r0); }&#xa;#mx-symbol-l9r8kh .mx-symbol-l9r8kh-st1 { fill: var(--mx-r1); }&#xa;#mx-symbol-l9r8kh .mx-symbol-l9r8kh-st2 { fill: var(--mx-r2); }</style>&#xa;	<path class="mx-symbol-l9r8kh-st1" d="M16 10h2v4h-2zm-7 0h2v4H9zm-7 0h2v4H2z"/>&#xa;	<path class="mx-symbol-l9r8kh-st0" d="M9 5h2v4H9z"/>&#xa;	<path class="mx-symbol-l9r8kh-st1" d="M2 9h16v2H2z"/>&#xa;	<path class="mx-symbol-l9r8kh-st2" d="M4 0h12v5H4z"/>&#xa;	<path class="mx-symbol-l9r8kh-st1" d="M10 0h6v5h-6z"/>&#xa;	<path class="mx-symbol-l9r8kh-st2" d="M14 14h6v6h-6zM0 14h6v6H0z"/>&#xa;	<path class="mx-symbol-l9r8kh-st1" d="M3 14h3v6H3z"/>&#xa;	<path class="mx-symbol-l9r8kh-st2" d="M7 14h6v6H7z"/>&#xa;	<path class="mx-symbol-l9r8kh-st1" d="M10 14h3v6h-3zm7 0h3v6h-3z"/>&#xa;</symbol><symbol id="mx-symbol-2zu1pv" viewBox="0 0 96.69599914550781 100.33599853515625" preserveAspectRatio="none" style="color-scheme: light dark;">&#xa;<style type="text/css">#mx-symbol-2zu1pv .mx-symbol-2zu1pv-st0 { fill: var(--mx-r0); }&#xa;#mx-symbol-2zu1pv .mx-symbol-2zu1pv-st1 { fill: var(--mx-r1); }</style>&#xa;	<path class="mx-symbol-2zu1pv-st0" d="M29.794 100.336L46.92 50.168h49.776zM0 99.671l12.976-49.502H29.22L16.897 92.054z"/>&#xa;	<path class="mx-symbol-2zu1pv-st1" d="M29.794 0L46.92 50.168h49.776zM0 .666l12.976 49.502H29.22L16.897 8.283z"/>&#xa;</symbol><symbol id="mx-symbol-1b4go1v" viewBox="0 0 14.65999984741211 20" preserveAspectRatio="none" style="color-scheme: light dark;">&#xa;	<style type="text/css">#mx-symbol-1b4go1v .mx-symbol-1b4go1v-st0 { fill: var(--mx-r0); }&#xa;#mx-symbol-1b4go1v .mx-symbol-1b4go1v-st1 { fill: var(--mx-r1); }&#xa;#mx-symbol-1b4go1v .mx-symbol-1b4go1v-st2 { fill: var(--mx-r2); }</style>&#xa;	<style>#mx-symbol-1b4go1v .mx-symbol-1b4go1v-D { fill-rule: evenodd; }</style>&#xa;	<path d="M7.33 15.35v-3.01L0 8.44v3.01zm0 4.65v-3.01L0 13.09v3.01z" class="mx-symbol-1b4go1v-st2 mx-symbol-1b4go1v-D"/>&#xa;	<path d="M14.66 8.44l-7.33 3.9v3.01l7.33-3.9zm0 4.65l-7.33 3.9V20l7.33-3.9z" class="mx-symbol-1b4go1v-st1 mx-symbol-1b4go1v-D"/>&#xa;	<path d="M7.33 0v3.01l7.33 3.9V3.9z" class="mx-symbol-1b4go1v-st0 mx-symbol-1b4go1v-D"/>&#xa;	<path d="M0 6.91l7.33-3.9V0L0 3.9z" class="mx-symbol-1b4go1v-D mx-symbol-1b4go1v-st1"/>&#xa;	<path d="M7.33 10.79V7.77L0 3.87v3.02z" class="mx-symbol-1b4go1v-D mx-symbol-1b4go1v-st2"/>&#xa;	<path d="M14.66 3.87l-7.33 3.9v3.02l7.33-3.9z" class="mx-symbol-1b4go1v-D mx-symbol-1b4go1v-st1"/>&#xa;</symbol><symbol id="mx-image-t6umzi" viewBox="0 0 252 68"><image width="252" height="68" xlink:href=""/></symbol></defs><g><g data-cell-id="0"><g data-cell-id="1"><g data-cell-id="title-bar"><g style="filter: drop-shadow(light-dark(rgba(0, 0, 0, 0.25), rgba(237, 237, 237, 0.25)) 2px 3px 2px);"><rect x="14" y="14" width="1440" height="40" fill="#4da1f5" stroke="none" pointer-events="all" style="fill: light-dark(rgb(77, 161, 245), rgb(47, 119, 192));"/></g><g><g><switch><foreignObject style="overflow: visible; text-align: left;" pointer-events="none" width="100%" height="100%" requiredFeatures="http://www.w3.org/TR/SVG11/feature#Extensibility"><div xmlns="http://www.w3.org/1999/xhtml" style="display: flex; align-items: unsafe center; justify-content: unsafe flex-start; width: 1px; height: 1px; padding-top: 34px; margin-left: 66px;"><div style="box-sizing: border-box; font-size: 0; text-align: left; color: #ffffff; "><div style="display: inline-block; font-size: 14px; font-family: Helvetica; color: light-dark(#ffffff, #121212); line-height: 1.2; pointer-events: all; white-space: nowrap; ">Architecture: 3-Tier GCP</div></div></div></foreignObject><image x="66" y="26" width="153" height="20.5" xlink:href=""/></switch></g></g></g><g data-cell-id="gcp-platform"><g><rect x="14" y="74" width="1440" height="900" fill="#f6f6f6" stroke="none" pointer-events="all" style="fill: light-dark(rgb(246, 246, 246), rgb(26, 26, 26));"/></g><g><g><switch><foreignObject style="overflow: visible; text-align: left;" pointer-events="none" width="100%" height="100%" requiredFeatures="http://www.w3.org/TR/SVG11/feature#Extensibility"><div xmlns="http://www.w3.org/1999/xhtml" style="display: flex; align-items: unsafe flex-start; justify-content: unsafe flex-start; width: 1px; height: 1px; padding-top: 85px; margin-left: 64px;"><div style="box-sizing: border-box; font-size: 0; text-align: left; color: #717171; "><div style="display: inline-block; font-size: 14px; font-family: Helvetica; color: light-dark(#717171, #8c8c8c); line-height: 1.2; pointer-events: all; white-space: nowrap; "><b>Google </b>Cloud Platform</div></div></div></foreignObject><image x="64" y="85.5" width="145" height="20.5" xlink:href=""/></switch></g></g><g data-cell-id="gcp-logo"><g><path d="M 41.97 100.03 L 38.48 94.01 L 41.99 88 L 49.03 88 L 52.53 94.02 L 49.02 100.03 Z" fill="#e2e2e2" stroke="none" pointer-events="all" style="fill: light-dark(rgb(226, 226, 226), rgb(43, 43, 43));"/><path d="M 45.48 97.03 C 43.83 97.03 42.47 95.84 42.47 93.94 C 42.47 92.47 43.69 91.03 45.51 91.03 C 47.44 91.03 48.51 92.37 48.51 94.02 C 48.51 95.94 46.97 97.03 45.48 97.03 Z" fill="#ffffff" stroke="none" pointer-events="all" style="fill: light-dark(rgb(255, 255, 255), rgb(18, 18, 18));"/><path d="M 46.71 104 L 40.67 104 C 39.88 104 39.4 103.63 39.16 103.11 L 34.32 94.78 C 34 94.3 34.06 93.69 34.31 93.23 L 36.17 90.04 L 41.97 100.03 L 49.02 100.03 Z" fill="#ffcf48" stroke="none" pointer-events="all" style="fill: light-dark(rgb(255, 207, 72), rgb(99, 58, 0));"/><path d="M 50.54 104 L 46.71 104 L 52.53 94.02 L 49.03 88 L 53.66 88 L 56.69 93.23 C 56.98 93.73 57 94.24 56.7 94.79 L 51.91 103.01 C 51.61 103.57 51.24 104 50.54 104 Z" fill="#dc473a" stroke="none" pointer-events="all" style="fill: light-dark(rgb(220, 71, 58), rgb(251, 123, 112));"/><path d="M 50.5 84.02 C 51.07 84.02 51.54 84.35 51.81 84.85 L 53.66 88 L 41.99 88 L 38.48 94.01 L 36.17 90.04 L 39.12 84.95 C 39.48 84.36 39.85 84 40.84 84.02 Z" fill="#528ff5" stroke="none" pointer-events="all" style="fill: light-dark(rgb(82, 143, 245), rgb(71, 124, 212));"/></g></g></g><g data-cell-id="card-users"><g transform="translate(0.5,0.5)" style="filter: drop-shadow(light-dark(rgba(0, 0, 0, 0.25), rgba(237, 237, 237, 0.25)) 2px 3px 2px);"><rect x="699" y="1034" width="70" height="90" rx="1" ry="1" fill="#ffffff" stroke="#dddddd" pointer-events="all" style="fill: light-dark(rgb(255, 255, 255), rgb(18, 18, 18)); stroke: light-dark(rgb(221, 221, 221), rgb(47, 47, 47));"/></g><g><g><switch><foreignObject style="overflow: visible; text-align: left;" pointer-events="none" width="100%" height="100%" requiredFeatures="http://www.w3.org/TR/SVG11/feature#Extensibility"><div xmlns="http://www.w3.org/1999/xhtml" style="display: flex; align-items: unsafe flex-end; justify-content: unsafe center; width: 68px; height: 1px; padding-top: 1119px; margin-left: 700px;"><div style="box-sizing: border-box; font-size: 0; text-align: center; color: #999999; "><div style="display: inline-block; font-size: 12px; font-family: Helvetica; color: light-dark(#999999, #6a6a6a); line-height: 1.2; pointer-events: all; white-space: normal; word-wrap: normal; ">End Users</div></div></div></foreignObject><image x="700" y="1105.5" width="68" height="17" xlink:href=""/></switch></g></g><g data-cell-id="icon-users"><g><path d="M 749.95 1059.74 C 749.95 1063.47 746.92 1066.49 743.17 1066.49 C 739.41 1066.49 736.37 1063.47 736.37 1059.74 C 736.37 1056.03 739.41 1053 743.17 1053 C 746.92 1053 749.95 1056.03 749.95 1059.74 Z M 731.62 1059.74 C 731.62 1063.47 728.57 1066.49 724.83 1066.49 C 721.08 1066.49 718.03 1063.47 718.03 1059.74 C 718.03 1056.03 721.08 1053 724.83 1053 C 728.57 1053 731.62 1056.03 731.62 1059.74 Z M 745.54 1084.5 L 745.54 1078.2 C 745.54 1075.29 743.07 1072.41 740.98 1071.15 C 747.17 1070.95 757.56 1073.13 759 1078.45 L 759 1084.5 Z M 709 1084.5 L 709 1078.42 C 710.7 1072.13 722.82 1071.15 724.95 1071.15 C 727.74 1071.15 739.16 1072.63 740.69 1078.32 L 740.69 1084.5 Z" fill="#757575" stroke="none" pointer-events="all" style="fill: light-dark(rgb(117, 117, 117), rgb(137, 137, 137));"/></g></g></g><g data-cell-id="group-frontend"><g><rect x="354" y="144" width="760" height="110" rx="1" ry="1" fill="#e1f5fe" stroke="none" pointer-events="all" style="fill: light-dark(rgb(225, 245, 254), rgb(15, 33, 40));"/></g><g><g><switch><foreignObject style="overflow: visible; text-align: left;" pointer-events="none" width="100%" height="100%" requiredFeatures="http://www.w3.org/TR/SVG11/feature#Extensibility"><div xmlns="http://www.w3.org/1999/xhtml" style="display: flex; align-items: unsafe flex-start; justify-content: unsafe flex-start; width: 1px; height: 1px; padding-top: 155px; margin-left: 364px;"><div style="box-sizing: border-box; font-size: 0; text-align: left; color: #9E9E9E; "><div style="display: inline-block; font-size: 12px; font-family: Helvetica; color: light-dark(#9E9E9E, #656565); line-height: 1.2; pointer-events: all; white-space: nowrap; ">Frontend</div></div></div></foreignObject><image x="364" y="155.5" width="48" height="17" xlink:href=""/></switch></g></g></g><g data-cell-id="card-lb"><g transform="translate(0.5,0.5)" style="filter: drop-shadow(light-dark(rgba(0, 0, 0, 0.25), rgba(237, 237, 237, 0.25)) 2px 3px 2px);"><rect x="674" y="174" width="160" height="60" rx="1" ry="1" fill="#ffffff" stroke="#dddddd" pointer-events="all" style="fill: light-dark(rgb(255, 255, 255), rgb(18, 18, 18)); stroke: light-dark(rgb(221, 221, 221), rgb(47, 47, 47));"/></g><g data-cell-id="icon-lb"><g><use style="--mx-r0: rgb(66, 133, 244); --mx-r1: rgb(102, 157, 246); --mx-r2: rgb(174, 203, 250)" href="#mx-symbol-l9r8kh" xlink:href="#mx-symbol-l9r8kh" x="689" y="189" width="30" height="30"/></g><g><g><switch><foreignObject style="overflow: visible; text-align: left;" pointer-events="none" width="100%" height="100%" requiredFeatures="http://www.w3.org/TR/SVG11/feature#Extensibility"><div xmlns="http://www.w3.org/1999/xhtml" style="display: flex; align-items: unsafe center; justify-content: unsafe flex-start; width: 1px; height: 1px; padding-top: 204px; margin-left: 741px;"><div style="box-sizing: border-box; font-size: 0; text-align: left; color: #999999; "><div style="display: inline-block; font-size: 12px; font-family: Helvetica; color: light-dark(#999999, #6a6a6a); line-height: 1.2; pointer-events: all; white-space: nowrap; "><span style="color: light-dark(rgb(0, 0, 0), rgb(237, 237, 237));">Load Balancer</span><br />Cloud Load Balancing</div></div></div></foreignObject><image x="741" y="190" width="117" height="32" xlink:href=""/></switch></g></g></g></g><g data-cell-id="group-app"><g><rect x="354" y="314" width="760" height="110" rx="1" ry="1" fill="#f1f8e9" stroke="none" pointer-events="all" style="fill: light-dark(rgb(241, 248, 233), rgb(22, 28, 15));"/></g><g><g><switch><foreignObject style="overflow: visible; text-align: left;" pointer-events="none" width="100%" height="100%" requiredFeatures="http://www.w3.org/TR/SVG11/feature#Extensibility"><div xmlns="http://www.w3.org/1999/xhtml" style="display: flex; align-items: unsafe flex-start; justify-content: unsafe flex-start; width: 1px; height: 1px; padding-top: 325px; margin-left: 364px;"><div style="box-sizing: border-box; font-size: 0; text-align: left; color: #9E9E9E; "><div style="display: inline-block; font-size: 12px; font-family: Helvetica; color: light-dark(#9E9E9E, #656565); line-height: 1.2; pointer-events: all; white-space: nowrap; ">Application</div></div></div></foreignObject><image x="364" y="325.5" width="59" height="17" xlink:href=""/></switch></g></g></g><g data-cell-id="card-run"><g transform="translate(0.5,0.5)" style="filter: drop-shadow(light-dark(rgba(0, 0, 0, 0.25), rgba(237, 237, 237, 0.25)) 2px 3px 2px);"><rect x="674" y="344" width="160" height="60" rx="1" ry="1" fill="#ffffff" stroke="#dddddd" pointer-events="all" style="fill: light-dark(rgb(255, 255, 255), rgb(18, 18, 18)); stroke: light-dark(rgb(221, 221, 221), rgb(47, 47, 47));"/></g><g data-cell-id="icon-run"><g><use style="--mx-r0: rgb(66, 133, 244); --mx-r1: rgb(174, 203, 250)" href="#mx-symbol-2zu1pv" xlink:href="#mx-symbol-2zu1pv" x="689" y="359" width="30" height="30"/></g><g><g><switch><foreignObject style="overflow: visible; text-align: left;" pointer-events="none" width="100%" height="100%" requiredFeatures="http://www.w3.org/TR/SVG11/feature#Extensibility"><div xmlns="http://www.w3.org/1999/xhtml" style="display: flex; align-items: unsafe center; justify-content: unsafe flex-start; width: 1px; height: 1px; padding-top: 374px; margin-left: 741px;"><div style="box-sizing: border-box; font-size: 0; text-align: left; color: #999999; "><div style="display: inline-block; font-size: 12px; font-family: Helvetica; color: light-dark(#999999, #6a6a6a); line-height: 1.2; pointer-events: all; white-space: nowrap; "><span style="color: light-dark(rgb(0, 0, 0), rgb(237, 237, 237));">App Service</span><br />Cloud Run</div></div></div></foreignObject><image x="741" y="360" width="65" height="32" xlink:href=""/></switch></g></g></g></g><g data-cell-id="group-data"><g><rect x="354" y="484" width="760" height="110" rx="1" ry="1" fill="#fff8e1" stroke="none" pointer-events="all" style="fill: light-dark(rgb(255, 248, 225), rgb(30, 24, 4));"/></g><g><g><switch><foreignObject style="overflow: visible; text-align: left;" pointer-events="none" width="100%" height="100%" requiredFeatures="http://www.w3.org/TR/SVG11/feature#Extensibility"><div xmlns="http://www.w3.org/1999/xhtml" style="display: flex; align-items: unsafe flex-start; justify-content: unsafe flex-start; width: 1px; height: 1px; padding-top: 495px; margin-left: 364px;"><div style="box-sizing: border-box; font-size: 0; text-align: left; color: #9E9E9E; "><div style="display: inline-block; font-size: 12px; font-family: Helvetica; color: light-dark(#9E9E9E, #656565); line-height: 1.2; pointer-events: all; white-space: nowrap; ">Data</div></div></div></foreignObject><image x="364" y="495.5" width="25" height="17" xlink:href=""/></switch></g></g></g><g data-cell-id="card-sql"><g transform="translate(0.5,0.5)" style="filter: drop-shadow(light-dark(rgba(0, 0, 0, 0.25), rgba(237, 237, 237, 0.25)) 2px 3px 2px);"><rect x="674" y="514" width="160" height="60" rx="1" ry="1" fill="#ffffff" stroke="#dddddd" pointer-events="all" style="fill: light-dark(rgb(255, 255, 255), rgb(18, 18, 18)); stroke: light-dark(rgb(221, 221, 221), rgb(47, 47, 47));"/></g><g data-cell-id="icon-sql"><g><use style="--mx-r0: rgb(66, 133, 244); --mx-r1: rgb(102, 157, 246); --mx-r2: rgb(174, 203, 250)" href="#mx-symbol-1b4go1v" xlink:href="#mx-symbol-1b4go1v" x="689" y="529" width="30" height="30"/></g><g><g><switch><foreignObject style="overflow: visible; text-align: left;" pointer-events="none" width="100%" height="100%" requiredFeatures="http://www.w3.org/TR/SVG11/feature#Extensibility"><div xmlns="http://www.w3.org/1999/xhtml" style="display: flex; align-items: unsafe center; justify-content: unsafe flex-start; width: 1px; height: 1px; padding-top: 544px; margin-left: 741px;"><div style="box-sizing: border-box; font-size: 0; text-align: left; color: #999999; "><div style="display: inline-block; font-size: 12px; font-family: Helvetica; color: light-dark(#999999, #6a6a6a); line-height: 1.2; pointer-events: all; white-space: nowrap; "><span style="color: light-dark(rgb(0, 0, 0), rgb(237, 237, 237));">Database</span><br />Cloud SQL</div></div></div></foreignObject><image x="741" y="530" width="59" height="32" xlink:href=""/></switch></g></g></g></g><g data-cell-id="edge-users-lb"><g><path d="M 769 1079 L 1194 1079 L 1194 124 L 754 124 L 754 165.76" fill="none" stroke="#4284f3" stroke-width="2" stroke-miterlimit="10" pointer-events="stroke" style="stroke: light-dark(rgb(66, 132, 243), rgb(78, 134, 230));"/><path d="M 754 171.76 L 752 165.76 L 756 165.76 Z" fill="#4284f3" stroke="#4284f3" stroke-width="2" stroke-miterlimit="10" pointer-events="all" style="fill: light-dark(rgb(66, 132, 243), rgb(78, 134, 230)); stroke: light-dark(rgb(66, 132, 243), rgb(78, 134, 230));"/></g><g><g><switch><foreignObject style="overflow: visible; text-align: left;" pointer-events="none" width="100%" height="100%" requiredFeatures="http://www.w3.org/TR/SVG11/feature#Extensibility"><div xmlns="http://www.w3.org/1999/xhtml" style="display: flex; align-items: unsafe center; justify-content: unsafe flex-start; width: 1px; height: 1px; padding-top: 569px; margin-left: 1196px;"><div style="box-sizing: border-box; font-size: 0; text-align: left; color: #000000; "><div style="display: inline-block; font-size: 12px; font-family: Helvetica; color: light-dark(#000000, #ededed); line-height: 1.2; pointer-events: all; white-space: nowrap; ">HTTPS:443</div></div></div></foreignObject><use x="1196" y="562.5" width="63" height="17" href="#mx-image-t6umzi" xlink:href="#mx-image-t6umzi"/></switch></g></g></g><g data-cell-id="edge-lb-run"><g><path d="M 754 234 L 754 335.76" fill="none" stroke="#4284f3" stroke-width="2" stroke-miterlimit="10" pointer-events="stroke" style="stroke: light-dark(rgb(66, 132, 243), rgb(78, 134, 230));"/><path d="M 754 341.76 L 752 335.76 L 756 335.76 Z" fill="#4284f3" stroke="#4284f3" stroke-width="2" stroke-miterlimit="10" pointer-events="all" style="fill: light-dark(rgb(66, 132, 243), rgb(78, 134, 230)); stroke: light-dark(rgb(66, 132, 243), rgb(78, 134, 230));"/></g><g><g><switch><foreignObject style="overflow: visible; text-align: left;" pointer-events="none" width="100%" height="100%" requiredFeatures="http://www.w3.org/TR/SVG11/feature#Extensibility"><div xmlns="http://www.w3.org/1999/xhtml" style="display: flex; align-items: unsafe center; justify-content: unsafe flex-start; width: 1px; height: 1px; padding-top: 289px; margin-left: 756px;"><div style="box-sizing: border-box; font-size: 0; text-align: left; color: #000000; "><div style="display: inline-block; font-size: 12px; font-family: Helvetica; color: light-dark(#000000, #ededed); line-height: 1.2; pointer-events: all; white-space: nowrap; ">HTTPS:443</div></div></div></foreignObject><use x="756" y="282.5" width="63" height="17" href="#mx-image-t6umzi" xlink:href="#mx-image-t6umzi"/></switch></g></g></g><g data-cell-id="edge-run-sql"><g><path d="M 754 404 L 754 505.76" fill="none" stroke="#4284f3" stroke-width="2" stroke-miterlimit="10" pointer-events="stroke" style="stroke: light-dark(rgb(66, 132, 243), rgb(78, 134, 230));"/><path d="M 754 511.76 L 752 505.76 L 756 505.76 Z" fill="#4284f3" stroke="#4284f3" stroke-width="2" stroke-miterlimit="10" pointer-events="all" style="fill: light-dark(rgb(66, 132, 243), rgb(78, 134, 230)); stroke: light-dark(rgb(66, 132, 243), rgb(78, 134, 230));"/></g><g><g><switch><foreignObject style="overflow: visible; text-align: left;" pointer-events="none" width="100%" height="100%" requiredFeatures="http://www.w3.org/TR/SVG11/feature#Extensibility"><div xmlns="http://www.w3.org/1999/xhtml" style="display: flex; align-items: unsafe center; justify-content: unsafe flex-start; width: 1px; height: 1px; padding-top: 459px; margin-left: 756px;"><div style="box-sizing: border-box; font-size: 0; text-align: left; color: #000000; "><div style="display: inline-block; font-size: 12px; font-family: Helvetica; color: light-dark(#000000, #ededed); line-height: 1.2; pointer-events: all; white-space: nowrap; ">TCP:5432</div></div></div></foreignObject><image x="756" y="452.5" width="54" height="17" xlink:href=""/></switch></g></g></g></g></g></g><switch><g requiredFeatures="http://www.w3.org/TR/SVG11/feature#Extensibility"/><a transform="translate(0,-5)" xlink:href="https://www.drawio.com/doc/faq/svg-export-text-problems" target="_blank"><text text-anchor="middle" font-size="10px" x="50%" y="100%">Text is not SVG - cannot display</text></a></switch></svg>